<?xml version="1.0" encoding="UTF-8" standalone="no"?>
<!DOCTYPE svg PUBLIC "-//W3C//DTD SVG 1.1//EN"
 "http://www.w3.org/Graphics/SVG/1.1/DTD/svg11.dtd">
<!-- Generated by graphviz version 2.40.1 (20161225.0304)
 -->
<!-- Title: swift_standard_library Pages: 1 -->
<svg width="1342pt" height="1150pt"
 viewBox="0.00 0.00 1342.27 1150.00" xmlns="http://www.w3.org/2000/svg" xmlns:xlink="http://www.w3.org/1999/xlink">
<g id="graph0" class="graph" transform="scale(1 1) rotate(0) translate(4 1146)">
<title>swift_standard_library</title>
<polygon fill="#ffffff" stroke="transparent" points="-4,4 -4,-1146 1338.2715,-1146 1338.2715,4 -4,4"/>
<!-- CustomStringConvertible -->
<g id="node1" class="node">
<title>CustomStringConvertible</title>
<path fill="none" stroke="#ff0000" stroke-dasharray="5,2" d="M794.8907,-1042C794.8907,-1042 659.1113,-1042 659.1113,-1042 653.1113,-1042 647.1113,-1036 647.1113,-1030 647.1113,-1030 647.1113,-1018 647.1113,-1018 647.1113,-1012 653.1113,-1006 659.1113,-1006 659.1113,-1006 794.8907,-1006 794.8907,-1006 800.8907,-1006 806.8907,-1012 806.8907,-1018 806.8907,-1018 806.8907,-1030 806.8907,-1030 806.8907,-1036 800.8907,-1042 794.8907,-1042"/>
<text text-anchor="middle" x="727.001" y="-1019.8" font-family="Times,serif" font-size="14.00" fill="#000000">CustomStringConvertible</text>
</g>
<!-- LosslessStringConvertible -->
<g id="node2" class="node">
<title>LosslessStringConvertible</title>
<path fill="none" stroke="#ff0000" stroke-dasharray="5,2" d="M532.8869,-1042C532.8869,-1042 393.3416,-1042 393.3416,-1042 387.3416,-1042 381.3416,-1036 381.3416,-1030 381.3416,-1030 381.3416,-1018 381.3416,-1018 381.3416,-1012 387.3416,-1006 393.3416,-1006 393.3416,-1006 532.8869,-1006 532.8869,-1006 538.8869,-1006 544.8869,-1012 544.8869,-1018 544.8869,-1018 544.8869,-1030 544.8869,-1030 544.8869,-1036 538.8869,-1042 532.8869,-1042"/>
<text text-anchor="middle" x="463.1143" y="-1019.8" font-family="Times,serif" font-size="14.00" fill="#000000">LosslessStringConvertible</text>
</g>
<!-- LosslessStringConvertible&#45;&gt;CustomStringConvertible -->
<g id="edge1" class="edge">
<title>LosslessStringConvertible&#45;&gt;CustomStringConvertible</title>
<path fill="none" stroke="#000000" d="M545.1631,-1024C574.1261,-1024 606.8506,-1024 636.4751,-1024"/>
<polygon fill="#000000" stroke="#000000" points="636.8132,-1027.5001 646.8131,-1024 636.8131,-1020.5001 636.8132,-1027.5001"/>
</g>
<!-- CustomDebugStringConvertible -->
<g id="node3" class="node">
<title>CustomDebugStringConvertible</title>
<path fill="none" stroke="#ff0000" stroke-dasharray="5,2" d="M330.6246,-758C330.6246,-758 157.1967,-758 157.1967,-758 151.1967,-758 145.1967,-752 145.1967,-746 145.1967,-746 145.1967,-734 145.1967,-734 145.1967,-728 151.1967,-722 157.1967,-722 157.1967,-722 330.6246,-722 330.6246,-722 336.6246,-722 342.6246,-728 342.6246,-734 342.6246,-734 342.6246,-746 342.6246,-746 342.6246,-752 336.6246,-758 330.6246,-758"/>
<text text-anchor="middle" x="243.9106" y="-735.8" font-family="Times,serif" font-size="14.00" fill="#000000">CustomDebugStringConvertible</text>
</g>
<!-- Hashable -->
<g id="node4" class="node">
<title>Hashable</title>
<path fill="none" stroke="#ff0000" stroke-dasharray="5,2" d="M749.0909,-934C749.0909,-934 704.9111,-934 704.9111,-934 698.9111,-934 692.9111,-928 692.9111,-922 692.9111,-922 692.9111,-910 692.9111,-910 692.9111,-904 698.9111,-898 704.9111,-898 704.9111,-898 749.0909,-898 749.0909,-898 755.0909,-898 761.0909,-904 761.0909,-910 761.0909,-910 761.0909,-922 761.0909,-922 761.0909,-928 755.0909,-934 749.0909,-934"/>
<text text-anchor="middle" x="727.001" y="-911.8" font-family="Times,serif" font-size="14.00" fill="#000000">Hashable</text>
</g>
<!-- Equatable -->
<g id="node5" class="node">
<title>Equatable</title>
<path fill="none" stroke="#ff0000" stroke-dasharray="5,2" d="M1270.9404,-911C1270.9404,-911 1222.9951,-911 1222.9951,-911 1216.9951,-911 1210.9951,-905 1210.9951,-899 1210.9951,-899 1210.9951,-887 1210.9951,-887 1210.9951,-881 1216.9951,-875 1222.9951,-875 1222.9951,-875 1270.9404,-875 1270.9404,-875 1276.9404,-875 1282.9404,-881 1282.9404,-887 1282.9404,-887 1282.9404,-899 1282.9404,-899 1282.9404,-905 1276.9404,-911 1270.9404,-911"/>
<text text-anchor="middle" x="1246.9678" y="-888.8" font-family="Times,serif" font-size="14.00" fill="#000000">Equatable</text>
</g>
<!-- Hashable&#45;&gt;Equatable -->
<g id="edge2" class="edge">
<title>Hashable&#45;&gt;Equatable</title>
<path fill="none" stroke="#000000" d="M761.1175,-914.4909C851.5488,-910.4908 1097.5075,-899.6112 1200.5629,-895.0527"/>
<polygon fill="#000000" stroke="#000000" points="1200.8274,-898.5445 1210.663,-894.6059 1200.518,-891.5513 1200.8274,-898.5445"/>
</g>
<!-- Comparable -->
<g id="node6" class="node">
<title>Comparable</title>
<path fill="none" stroke="#ff0000" stroke-dasharray="5,2" d="M1045.3995,-888C1045.3995,-888 984.5556,-888 984.5556,-888 978.5556,-888 972.5556,-882 972.5556,-876 972.5556,-876 972.5556,-864 972.5556,-864 972.5556,-858 978.5556,-852 984.5556,-852 984.5556,-852 1045.3995,-852 1045.3995,-852 1051.3995,-852 1057.3995,-858 1057.3995,-864 1057.3995,-864 1057.3995,-876 1057.3995,-876 1057.3995,-882 1051.3995,-888 1045.3995,-888"/>
<text text-anchor="middle" x="1014.9775" y="-865.8" font-family="Times,serif" font-size="14.00" fill="#000000">Comparable</text>
</g>
<!-- Comparable&#45;&gt;Equatable -->
<g id="edge3" class="edge">
<title>Comparable&#45;&gt;Equatable</title>
<path fill="none" stroke="#000000" d="M1057.2584,-874.1918C1097.74,-878.2052 1158.6743,-884.2464 1200.4981,-888.3929"/>
<polygon fill="#000000" stroke="#000000" points="1200.3989,-891.9001 1210.6954,-889.4039 1201.0895,-884.9343 1200.3989,-891.9001"/>
</g>
<!-- Numeric -->
<g id="node7" class="node">
<title>Numeric</title>
<path fill="none" stroke="#ff0000" stroke-dasharray="5,2" d="M1035.457,-1096C1035.457,-1096 994.498,-1096 994.498,-1096 988.498,-1096 982.498,-1090 982.498,-1084 982.498,-1084 982.498,-1072 982.498,-1072 982.498,-1066 988.498,-1060 994.498,-1060 994.498,-1060 1035.457,-1060 1035.457,-1060 1041.457,-1060 1047.457,-1066 1047.457,-1072 1047.457,-1072 1047.457,-1084 1047.457,-1084 1047.457,-1090 1041.457,-1096 1035.457,-1096"/>
<text text-anchor="middle" x="1014.9775" y="-1073.8" font-family="Times,serif" font-size="14.00" fill="#000000">Numeric</text>
</g>
<!-- Numeric&#45;&gt;Equatable -->
<g id="edge14" class="edge">
<title>Numeric&#45;&gt;Equatable</title>
<path fill="none" stroke="#000000" d="M1037.6441,-1059.9246C1079.4832,-1026.5601 1168.878,-955.2725 1216.1662,-917.5626"/>
<polygon fill="#000000" stroke="#000000" points="1218.5729,-920.12 1224.2092,-911.1488 1214.2086,-914.6471 1218.5729,-920.12"/>
</g>
<!-- ExpressibleByIntegerLiteral -->
<g id="node17" class="node">
<title>ExpressibleByIntegerLiteral</title>
<path fill="none" stroke="#ff0000" stroke-dasharray="5,2" d="M1322.0756,-1096C1322.0756,-1096 1171.8599,-1096 1171.8599,-1096 1165.8599,-1096 1159.8599,-1090 1159.8599,-1084 1159.8599,-1084 1159.8599,-1072 1159.8599,-1072 1159.8599,-1066 1165.8599,-1060 1171.8599,-1060 1171.8599,-1060 1322.0756,-1060 1322.0756,-1060 1328.0756,-1060 1334.0756,-1066 1334.0756,-1072 1334.0756,-1072 1334.0756,-1084 1334.0756,-1084 1334.0756,-1090 1328.0756,-1096 1322.0756,-1096"/>
<text text-anchor="middle" x="1246.9678" y="-1073.8" font-family="Times,serif" font-size="14.00" fill="#000000">ExpressibleByIntegerLiteral</text>
</g>
<!-- Numeric&#45;&gt;ExpressibleByIntegerLiteral -->
<g id="edge15" class="edge">
<title>Numeric&#45;&gt;ExpressibleByIntegerLiteral</title>
<path fill="none" stroke="#000000" d="M1047.724,-1078C1074.2675,-1078 1113.1033,-1078 1149.4538,-1078"/>
<polygon fill="#000000" stroke="#000000" points="1149.6283,-1081.5001 1159.6283,-1078 1149.6282,-1074.5001 1149.6283,-1081.5001"/>
</g>
<!-- SignedNumeric -->
<g id="node8" class="node">
<title>SignedNumeric</title>
<path fill="none" stroke="#ff0000" stroke-dasharray="5,2" d="M766.8702,-1096C766.8702,-1096 687.1318,-1096 687.1318,-1096 681.1318,-1096 675.1318,-1090 675.1318,-1084 675.1318,-1084 675.1318,-1072 675.1318,-1072 675.1318,-1066 681.1318,-1060 687.1318,-1060 687.1318,-1060 766.8702,-1060 766.8702,-1060 772.8702,-1060 778.8702,-1066 778.8702,-1072 778.8702,-1072 778.8702,-1084 778.8702,-1084 778.8702,-1090 772.8702,-1096 766.8702,-1096"/>
<text text-anchor="middle" x="727.001" y="-1073.8" font-family="Times,serif" font-size="14.00" fill="#000000">SignedNumeric</text>
</g>
<!-- SignedNumeric&#45;&gt;Numeric -->
<g id="edge13" class="edge">
<title>SignedNumeric&#45;&gt;Numeric</title>
<path fill="none" stroke="#000000" d="M779.1514,-1078C834.4989,-1078 920.9176,-1078 972.3428,-1078"/>
<polygon fill="#000000" stroke="#000000" points="972.4516,-1081.5001 982.4515,-1078 972.4515,-1074.5001 972.4516,-1081.5001"/>
</g>
<!-- Strideable -->
<g id="node9" class="node">
<title>Strideable</title>
<path fill="none" stroke="#ff0000" stroke-dasharray="5,2" d="M751.2602,-988C751.2602,-988 702.7418,-988 702.7418,-988 696.7418,-988 690.7418,-982 690.7418,-976 690.7418,-976 690.7418,-964 690.7418,-964 690.7418,-958 696.7418,-952 702.7418,-952 702.7418,-952 751.2602,-952 751.2602,-952 757.2602,-952 763.2602,-958 763.2602,-964 763.2602,-964 763.2602,-976 763.2602,-976 763.2602,-982 757.2602,-988 751.2602,-988"/>
<text text-anchor="middle" x="727.001" y="-965.8" font-family="Times,serif" font-size="14.00" fill="#000000">Strideable</text>
</g>
<!-- Strideable&#45;&gt;Comparable -->
<g id="edge4" class="edge">
<title>Strideable&#45;&gt;Comparable</title>
<path fill="none" stroke="#000000" d="M763.3437,-966.0196C792.7466,-962.1223 834.9278,-954.9849 870.291,-943 907.9205,-930.2471 948.0622,-909.3505 976.4941,-893.1754"/>
<polygon fill="#000000" stroke="#000000" points="978.3771,-896.1299 985.2957,-888.1059 974.8834,-890.0641 978.3771,-896.1299"/>
</g>
<!-- BinaryInteger -->
<g id="node10" class="node">
<title>BinaryInteger</title>
<path fill="none" stroke="#ff0000" stroke-dasharray="5,2" d="M497.8597,-1096C497.8597,-1096 428.3688,-1096 428.3688,-1096 422.3688,-1096 416.3688,-1090 416.3688,-1084 416.3688,-1084 416.3688,-1072 416.3688,-1072 416.3688,-1066 422.3688,-1060 428.3688,-1060 428.3688,-1060 497.8597,-1060 497.8597,-1060 503.8597,-1060 509.8597,-1066 509.8597,-1072 509.8597,-1072 509.8597,-1084 509.8597,-1084 509.8597,-1090 503.8597,-1096 497.8597,-1096"/>
<text text-anchor="middle" x="463.1143" y="-1073.8" font-family="Times,serif" font-size="14.00" fill="#000000">BinaryInteger</text>
</g>
<!-- BinaryInteger&#45;&gt;CustomStringConvertible -->
<g id="edge9" class="edge">
<title>BinaryInteger&#45;&gt;CustomStringConvertible</title>
<path fill="none" stroke="#000000" d="M509.9969,-1067.1145C532.2887,-1062.0384 559.3352,-1056.0237 583.7109,-1051 600.8097,-1047.476 619.0949,-1043.8912 636.6863,-1040.5342"/>
<polygon fill="#000000" stroke="#000000" points="637.7776,-1043.8896 646.9495,-1038.5861 636.4722,-1037.0124 637.7776,-1043.8896"/>
</g>
<!-- BinaryInteger&#45;&gt;Hashable -->
<g id="edge10" class="edge">
<title>BinaryInteger&#45;&gt;Hashable</title>
<path fill="none" stroke="#000000" d="M509.92,-1071.3521C523.5536,-1067.3908 537.508,-1061.0731 547.7109,-1051 583.7164,-1015.4528 545.5938,-976.2729 583.7109,-943 610.6113,-919.5184 651.3699,-913.7162 682.5483,-913.2398"/>
<polygon fill="#000000" stroke="#000000" points="682.7122,-916.7401 692.7207,-913.2646 682.7293,-909.7401 682.7122,-916.7401"/>
</g>
<!-- BinaryInteger&#45;&gt;Numeric -->
<g id="edge11" class="edge">
<title>BinaryInteger&#45;&gt;Numeric</title>
<path fill="none" stroke="#000000" d="M509.9601,-1091.0102C532.1267,-1096.5145 559.0803,-1102.2765 583.7109,-1105 710.3083,-1118.9985 743.4636,-1116.7324 870.291,-1105 904.9627,-1101.7926 943.7178,-1094.3498 972.3857,-1088.0893"/>
<polygon fill="#000000" stroke="#000000" points="973.464,-1091.435 982.4649,-1085.8463 971.9434,-1084.6022 973.464,-1091.435"/>
</g>
<!-- BinaryInteger&#45;&gt;Strideable -->
<g id="edge12" class="edge">
<title>BinaryInteger&#45;&gt;Strideable</title>
<path fill="none" stroke="#000000" d="M510.1574,-1069.0643C523.1904,-1065.0382 536.7537,-1059.2585 547.7109,-1051 570.7454,-1033.6388 559.6554,-1012.9163 583.7109,-997 612.2275,-978.1321 650.543,-971.6582 680.378,-969.752"/>
<polygon fill="#000000" stroke="#000000" points="680.73,-973.2391 690.5474,-969.2555 680.3886,-966.2474 680.73,-973.2391"/>
</g>
<!-- FixedWidthInteger -->
<g id="node11" class="node">
<title>FixedWidthInteger</title>
<path fill="none" stroke="#ff0000" stroke-dasharray="5,2" d="M292.8814,-1088C292.8814,-1088 194.9399,-1088 194.9399,-1088 188.9399,-1088 182.9399,-1082 182.9399,-1076 182.9399,-1076 182.9399,-1064 182.9399,-1064 182.9399,-1058 188.9399,-1052 194.9399,-1052 194.9399,-1052 292.8814,-1052 292.8814,-1052 298.8814,-1052 304.8814,-1058 304.8814,-1064 304.8814,-1064 304.8814,-1076 304.8814,-1076 304.8814,-1082 298.8814,-1088 292.8814,-1088"/>
<text text-anchor="middle" x="243.9106" y="-1065.8" font-family="Times,serif" font-size="14.00" fill="#000000">FixedWidthInteger</text>
</g>
<!-- FixedWidthInteger&#45;&gt;LosslessStringConvertible -->
<g id="edge5" class="edge">
<title>FixedWidthInteger&#45;&gt;LosslessStringConvertible</title>
<path fill="none" stroke="#000000" d="M304.9711,-1057.1864C325.4963,-1052.8792 348.8678,-1047.9747 371.2287,-1043.2822"/>
<polygon fill="#000000" stroke="#000000" points="372.0089,-1046.6948 381.0769,-1041.2156 370.5712,-1039.8441 372.0089,-1046.6948"/>
</g>
<!-- FixedWidthInteger&#45;&gt;BinaryInteger -->
<g id="edge6" class="edge">
<title>FixedWidthInteger&#45;&gt;BinaryInteger</title>
<path fill="none" stroke="#000000" d="M304.9711,-1072.2284C336.6116,-1073.3832 375.0157,-1074.7848 406.0551,-1075.9176"/>
<polygon fill="#000000" stroke="#000000" points="406.1577,-1079.4236 416.2787,-1076.2907 406.413,-1072.4282 406.1577,-1079.4236"/>
</g>
<!-- SignedInteger -->
<g id="node12" class="node">
<title>SignedInteger</title>
<path fill="none" stroke="#ff0000" stroke-dasharray="5,2" d="M278.9431,-1142C278.9431,-1142 208.8782,-1142 208.8782,-1142 202.8782,-1142 196.8782,-1136 196.8782,-1130 196.8782,-1130 196.8782,-1118 196.8782,-1118 196.8782,-1112 202.8782,-1106 208.8782,-1106 208.8782,-1106 278.9431,-1106 278.9431,-1106 284.9431,-1106 290.9431,-1112 290.9431,-1118 290.9431,-1118 290.9431,-1130 290.9431,-1130 290.9431,-1136 284.9431,-1142 278.9431,-1142"/>
<text text-anchor="middle" x="243.9106" y="-1119.8" font-family="Times,serif" font-size="14.00" fill="#000000">SignedInteger</text>
</g>
<!-- SignedInteger&#45;&gt;SignedNumeric -->
<g id="edge7" class="edge">
<title>SignedInteger&#45;&gt;SignedNumeric</title>
<path fill="none" stroke="#000000" d="M291.1171,-1122.3213C350.9467,-1119.9012 457.194,-1114.6277 547.7109,-1105 586.8832,-1100.8335 630.6028,-1094.2882 665.0625,-1088.6856"/>
<polygon fill="#000000" stroke="#000000" points="665.6823,-1092.1308 674.9833,-1087.0572 664.5484,-1085.2232 665.6823,-1092.1308"/>
</g>
<!-- SignedInteger&#45;&gt;BinaryInteger -->
<g id="edge8" class="edge">
<title>SignedInteger&#45;&gt;BinaryInteger</title>
<path fill="none" stroke="#000000" d="M291.2047,-1114.0753C325.0274,-1106.9776 370.7043,-1097.3923 406.4738,-1089.886"/>
<polygon fill="#000000" stroke="#000000" points="407.2138,-1093.3071 416.2818,-1087.8278 405.7762,-1086.4563 407.2138,-1093.3071"/>
</g>
<!-- FloatingPoint -->
<g id="node13" class="node">
<title>FloatingPoint</title>
<path fill="none" stroke="#ff0000" stroke-dasharray="5,2" d="M497.3489,-988C497.3489,-988 428.8796,-988 428.8796,-988 422.8796,-988 416.8796,-982 416.8796,-976 416.8796,-976 416.8796,-964 416.8796,-964 416.8796,-958 422.8796,-952 428.8796,-952 428.8796,-952 497.3489,-952 497.3489,-952 503.3489,-952 509.3489,-958 509.3489,-964 509.3489,-964 509.3489,-976 509.3489,-976 509.3489,-982 503.3489,-988 497.3489,-988"/>
<text text-anchor="middle" x="463.1143" y="-965.8" font-family="Times,serif" font-size="14.00" fill="#000000">FloatingPoint</text>
</g>
<!-- FloatingPoint&#45;&gt;Hashable -->
<g id="edge18" class="edge">
<title>FloatingPoint&#45;&gt;Hashable</title>
<path fill="none" stroke="#000000" d="M509.4214,-959.2456C531.8222,-954.1422 559.125,-948.0671 583.7109,-943 616.8334,-936.1736 654.4078,-929.1191 682.7675,-923.9335"/>
<polygon fill="#000000" stroke="#000000" points="683.5624,-927.3464 692.7736,-922.1115 682.3083,-920.4597 683.5624,-927.3464"/>
</g>
<!-- FloatingPoint&#45;&gt;SignedNumeric -->
<g id="edge19" class="edge">
<title>FloatingPoint&#45;&gt;SignedNumeric</title>
<path fill="none" stroke="#000000" d="M509.2796,-978.6669C522.5795,-982.7033 536.5074,-988.5559 547.7109,-997 570.7454,-1014.3612 559.6554,-1035.0837 583.7109,-1051 607.4856,-1066.7304 638.0713,-1073.8461 664.8751,-1076.8822"/>
<polygon fill="#000000" stroke="#000000" points="664.6503,-1080.3767 674.9407,-1077.8555 665.3241,-1073.4092 664.6503,-1080.3767"/>
</g>
<!-- FloatingPoint&#45;&gt;Strideable -->
<g id="edge20" class="edge">
<title>FloatingPoint&#45;&gt;Strideable</title>
<path fill="none" stroke="#000000" d="M509.3818,-970C557.4429,-970 632.2239,-970 680.406,-970"/>
<polygon fill="#000000" stroke="#000000" points="680.5614,-973.5001 690.5614,-970 680.5614,-966.5001 680.5614,-973.5001"/>
</g>
<!-- BinaryFloatingPoint -->
<g id="node14" class="node">
<title>BinaryFloatingPoint</title>
<path fill="none" stroke="#ff0000" stroke-dasharray="5,2" d="M297.249,-866C297.249,-866 190.5723,-866 190.5723,-866 184.5723,-866 178.5723,-860 178.5723,-854 178.5723,-854 178.5723,-842 178.5723,-842 178.5723,-836 184.5723,-830 190.5723,-830 190.5723,-830 297.249,-830 297.249,-830 303.249,-830 309.249,-836 309.249,-842 309.249,-842 309.249,-854 309.249,-854 309.249,-860 303.249,-866 297.249,-866"/>
<text text-anchor="middle" x="243.9106" y="-843.8" font-family="Times,serif" font-size="14.00" fill="#000000">BinaryFloatingPoint</text>
</g>
<!-- BinaryFloatingPoint&#45;&gt;FloatingPoint -->
<g id="edge16" class="edge">
<title>BinaryFloatingPoint&#45;&gt;FloatingPoint</title>
<path fill="none" stroke="#000000" d="M309.3229,-865.8811C320.656,-869.9152 332.1271,-874.6241 342.5176,-880 376.9722,-897.8264 412.0315,-925.2534 435.4017,-945.1457"/>
<polygon fill="#000000" stroke="#000000" points="433.3024,-947.9571 443.1603,-951.8395 437.8751,-942.657 433.3024,-947.9571"/>
</g>
<!-- ExpressibleByFloatLiteral -->
<g id="node19" class="node">
<title>ExpressibleByFloatLiteral</title>
<path fill="none" stroke="#ff0000" stroke-dasharray="5,2" d="M532.8596,-866C532.8596,-866 393.3689,-866 393.3689,-866 387.3689,-866 381.3689,-860 381.3689,-854 381.3689,-854 381.3689,-842 381.3689,-842 381.3689,-836 387.3689,-830 393.3689,-830 393.3689,-830 532.8596,-830 532.8596,-830 538.8596,-830 544.8596,-836 544.8596,-842 544.8596,-842 544.8596,-854 544.8596,-854 544.8596,-860 538.8596,-866 532.8596,-866"/>
<text text-anchor="middle" x="463.1143" y="-843.8" font-family="Times,serif" font-size="14.00" fill="#000000">ExpressibleByFloatLiteral</text>
</g>
<!-- BinaryFloatingPoint&#45;&gt;ExpressibleByFloatLiteral -->
<g id="edge17" class="edge">
<title>BinaryFloatingPoint&#45;&gt;ExpressibleByFloatLiteral</title>
<path fill="none" stroke="#000000" d="M309.0855,-848C328.4988,-848 350.1507,-848 370.9435,-848"/>
<polygon fill="#000000" stroke="#000000" points="371.0684,-851.5001 381.0683,-848 371.0683,-844.5001 371.0684,-851.5001"/>
</g>
<!-- ExpressibleByArrayLiteral -->
<g id="node15" class="node">
<title>ExpressibleByArrayLiteral</title>
<path fill="none" stroke="#ff0000" stroke-dasharray="5,2" d="M315.5253,-428C315.5253,-428 172.2959,-428 172.2959,-428 166.2959,-428 160.2959,-422 160.2959,-416 160.2959,-416 160.2959,-404 160.2959,-404 160.2959,-398 166.2959,-392 172.2959,-392 172.2959,-392 315.5253,-392 315.5253,-392 321.5253,-392 327.5253,-398 327.5253,-404 327.5253,-404 327.5253,-416 327.5253,-416 327.5253,-422 321.5253,-428 315.5253,-428"/>
<text text-anchor="middle" x="243.9106" y="-405.8" font-family="Times,serif" font-size="14.00" fill="#000000">ExpressibleByArrayLiteral</text>
</g>
<!-- ExpressibleByDictionaryLiteral -->
<g id="node16" class="node">
<title>ExpressibleByDictionaryLiteral</title>
<path fill="none" stroke="#ff0000" stroke-dasharray="5,2" d="M329.2457,-228C329.2457,-228 158.5756,-228 158.5756,-228 152.5756,-228 146.5756,-222 146.5756,-216 146.5756,-216 146.5756,-204 146.5756,-204 146.5756,-198 152.5756,-192 158.5756,-192 158.5756,-192 329.2457,-192 329.2457,-192 335.2457,-192 341.2457,-198 341.2457,-204 341.2457,-204 341.2457,-216 341.2457,-216 341.2457,-222 335.2457,-228 329.2457,-228"/>
<text text-anchor="middle" x="243.9106" y="-205.8" font-family="Times,serif" font-size="14.00" fill="#000000">ExpressibleByDictionaryLiteral</text>
</g>
<!-- ExpressibleByBooleanLiteral -->
<g id="node18" class="node">
<title>ExpressibleByBooleanLiteral</title>
<path fill="none" stroke="#ff0000" stroke-dasharray="5,2" d="M322.5321,-996C322.5321,-996 165.2892,-996 165.2892,-996 159.2892,-996 153.2892,-990 153.2892,-984 153.2892,-984 153.2892,-972 153.2892,-972 153.2892,-966 159.2892,-960 165.2892,-960 165.2892,-960 322.5321,-960 322.5321,-960 328.5321,-960 334.5321,-966 334.5321,-972 334.5321,-972 334.5321,-984 334.5321,-984 334.5321,-990 328.5321,-996 322.5321,-996"/>
<text text-anchor="middle" x="243.9106" y="-973.8" font-family="Times,serif" font-size="14.00" fill="#000000">ExpressibleByBooleanLiteral</text>
</g>
<!-- ExpressibleByStringLiteral -->
<g id="node20" class="node">
<title>ExpressibleByStringLiteral</title>
<path fill="none" stroke="#ff0000" stroke-dasharray="5,2" d="M535.8077,-628C535.8077,-628 390.4208,-628 390.4208,-628 384.4208,-628 378.4208,-622 378.4208,-616 378.4208,-616 378.4208,-604 378.4208,-604 378.4208,-598 384.4208,-592 390.4208,-592 390.4208,-592 535.8077,-592 535.8077,-592 541.8077,-592 547.8077,-598 547.8077,-604 547.8077,-604 547.8077,-616 547.8077,-616 547.8077,-622 541.8077,-628 535.8077,-628"/>
<text text-anchor="middle" x="463.1143" y="-605.8" font-family="Times,serif" font-size="14.00" fill="#000000">ExpressibleByStringLiteral</text>
</g>
<!-- ExpressibleByExtendedGraphemeClusterLiteral -->
<g id="node21" class="node">
<title>ExpressibleByExtendedGraphemeClusterLiteral</title>
<path fill="none" stroke="#ff0000" stroke-dasharray="5,2" d="M858.0814,-628C858.0814,-628 595.9206,-628 595.9206,-628 589.9206,-628 583.9206,-622 583.9206,-616 583.9206,-616 583.9206,-604 583.9206,-604 583.9206,-598 589.9206,-592 595.9206,-592 595.9206,-592 858.0814,-592 858.0814,-592 864.0814,-592 870.0814,-598 870.0814,-604 870.0814,-604 870.0814,-616 870.0814,-616 870.0814,-622 864.0814,-628 858.0814,-628"/>
<text text-anchor="middle" x="727.001" y="-605.8" font-family="Times,serif" font-size="14.00" fill="#000000">ExpressibleByExtendedGraphemeClusterLiteral</text>
</g>
<!-- ExpressibleByStringLiteral&#45;&gt;ExpressibleByExtendedGraphemeClusterLiteral -->
<g id="edge21" class="edge">
<title>ExpressibleByStringLiteral&#45;&gt;ExpressibleByExtendedGraphemeClusterLiteral</title>
<path fill="none" stroke="#000000" d="M548.0622,-610C556.2925,-610 564.8034,-610 573.4414,-610"/>
<polygon fill="#000000" stroke="#000000" points="573.6308,-613.5001 583.6308,-610 573.6308,-606.5001 573.6308,-613.5001"/>
</g>
<!-- ExpressibleByUnicodeScalarLiteral -->
<g id="node22" class="node">
<title>ExpressibleByUnicodeScalarLiteral</title>
<path fill="none" stroke="#ff0000" stroke-dasharray="5,2" d="M1111.8509,-628C1111.8509,-628 918.1042,-628 918.1042,-628 912.1042,-628 906.1042,-622 906.1042,-616 906.1042,-616 906.1042,-604 906.1042,-604 906.1042,-598 912.1042,-592 918.1042,-592 918.1042,-592 1111.8509,-592 1111.8509,-592 1117.8509,-592 1123.8509,-598 1123.8509,-604 1123.8509,-604 1123.8509,-616 1123.8509,-616 1123.8509,-622 1117.8509,-628 1111.8509,-628"/>
<text text-anchor="middle" x="1014.9775" y="-605.8" font-family="Times,serif" font-size="14.00" fill="#000000">ExpressibleByUnicodeScalarLiteral</text>
</g>
<!-- ExpressibleByExtendedGraphemeClusterLiteral&#45;&gt;ExpressibleByUnicodeScalarLiteral -->
<g id="edge22" class="edge">
<title>ExpressibleByExtendedGraphemeClusterLiteral&#45;&gt;ExpressibleByUnicodeScalarLiteral</title>
<path fill="none" stroke="#000000" d="M870.1456,-610C878.8711,-610 887.6007,-610 896.2063,-610"/>
<polygon fill="#000000" stroke="#000000" points="896.2439,-613.5001 906.2438,-610 896.2438,-606.5001 896.2439,-613.5001"/>
</g>
<!-- RangeExpression -->
<g id="node23" class="node">
<title>RangeExpression</title>
<path fill="none" stroke="#ff0000" stroke-dasharray="5,2" d="M288.8901,-812C288.8901,-812 198.9312,-812 198.9312,-812 192.9312,-812 186.9312,-806 186.9312,-800 186.9312,-800 186.9312,-788 186.9312,-788 186.9312,-782 192.9312,-776 198.9312,-776 198.9312,-776 288.8901,-776 288.8901,-776 294.8901,-776 300.8901,-782 300.8901,-788 300.8901,-788 300.8901,-800 300.8901,-800 300.8901,-806 294.8901,-812 288.8901,-812"/>
<text text-anchor="middle" x="243.9106" y="-789.8" font-family="Times,serif" font-size="14.00" fill="#000000">RangeExpression</text>
</g>
<!-- Collection -->
<g id="node24" class="node">
<title>Collection</title>
<path fill="none" stroke="#ff0000" stroke-dasharray="5,2" d="M752.3259,-428C752.3259,-428 701.676,-428 701.676,-428 695.676,-428 689.676,-422 689.676,-416 689.676,-416 689.676,-404 689.676,-404 689.676,-398 695.676,-392 701.676,-392 701.676,-392 752.3259,-392 752.3259,-392 758.3259,-392 764.3259,-398 764.3259,-404 764.3259,-404 764.3259,-416 764.3259,-416 764.3259,-422 758.3259,-428 752.3259,-428"/>
<text text-anchor="middle" x="727.001" y="-405.8" font-family="Times,serif" font-size="14.00" fill="#000000">Collection</text>
</g>
<!-- Sequence -->
<g id="node25" class="node">
<title>Sequence</title>
<path fill="none" stroke="#ff0000" stroke-dasharray="5,2" d="M1037.6201,-136C1037.6201,-136 992.335,-136 992.335,-136 986.335,-136 980.335,-130 980.335,-124 980.335,-124 980.335,-112 980.335,-112 980.335,-106 986.335,-100 992.335,-100 992.335,-100 1037.6201,-100 1037.6201,-100 1043.6201,-100 1049.6201,-106 1049.6201,-112 1049.6201,-112 1049.6201,-124 1049.6201,-124 1049.6201,-130 1043.6201,-136 1037.6201,-136"/>
<text text-anchor="middle" x="1014.9775" y="-113.8" font-family="Times,serif" font-size="14.00" fill="#000000">Sequence</text>
</g>
<!-- Collection&#45;&gt;Sequence -->
<g id="edge26" class="edge">
<title>Collection&#45;&gt;Sequence</title>
<path fill="none" stroke="#000000" d="M745.0152,-391.7341C794.5097,-341.5481 932.6764,-201.451 989.7837,-143.5458"/>
<polygon fill="#000000" stroke="#000000" points="992.4402,-145.8366 996.9701,-136.259 987.4563,-140.9213 992.4402,-145.8366"/>
</g>
<!-- BidirectionalCollection -->
<g id="node26" class="node">
<title>BidirectionalCollection</title>
<path fill="none" stroke="#ff0000" stroke-dasharray="5,2" d="M525.0289,-482C525.0289,-482 401.1996,-482 401.1996,-482 395.1996,-482 389.1996,-476 389.1996,-470 389.1996,-470 389.1996,-458 389.1996,-458 389.1996,-452 395.1996,-446 401.1996,-446 401.1996,-446 525.0289,-446 525.0289,-446 531.0289,-446 537.0289,-452 537.0289,-458 537.0289,-458 537.0289,-470 537.0289,-470 537.0289,-476 531.0289,-482 525.0289,-482"/>
<text text-anchor="middle" x="463.1143" y="-459.8" font-family="Times,serif" font-size="14.00" fill="#000000">BidirectionalCollection</text>
</g>
<!-- BidirectionalCollection&#45;&gt;Collection -->
<g id="edge23" class="edge">
<title>BidirectionalCollection&#45;&gt;Collection</title>
<path fill="none" stroke="#000000" d="M536.9723,-448.8862C582.6986,-439.5291 640.0536,-427.7923 679.7268,-419.6739"/>
<polygon fill="#000000" stroke="#000000" points="680.5707,-423.0738 689.666,-417.64 679.1673,-416.2159 680.5707,-423.0738"/>
</g>
<!-- RandomAccessCollection -->
<g id="node27" class="node">
<title>RandomAccessCollection</title>
<path fill="none" stroke="#ff0000" stroke-dasharray="5,2" d="M312.8252,-520C312.8252,-520 174.996,-520 174.996,-520 168.996,-520 162.996,-514 162.996,-508 162.996,-508 162.996,-496 162.996,-496 162.996,-490 168.996,-484 174.996,-484 174.996,-484 312.8252,-484 312.8252,-484 318.8252,-484 324.8252,-490 324.8252,-496 324.8252,-496 324.8252,-508 324.8252,-508 324.8252,-514 318.8252,-520 312.8252,-520"/>
<text text-anchor="middle" x="243.9106" y="-497.8" font-family="Times,serif" font-size="14.00" fill="#000000">RandomAccessCollection</text>
</g>
<!-- RandomAccessCollection&#45;&gt;BidirectionalCollection -->
<g id="edge27" class="edge">
<title>RandomAccessCollection&#45;&gt;BidirectionalCollection</title>
<path fill="none" stroke="#000000" d="M324.9112,-487.9582C342.5485,-484.9006 361.2483,-481.6589 379.0033,-478.581"/>
<polygon fill="#000000" stroke="#000000" points="380.0776,-481.9471 389.3328,-476.7904 378.8819,-475.05 380.0776,-481.9471"/>
</g>
<!-- MutableCollection -->
<g id="node28" class="node">
<title>MutableCollection</title>
<path fill="none" stroke="#ff0000" stroke-dasharray="5,2" d="M511.5938,-428C511.5938,-428 414.6348,-428 414.6348,-428 408.6348,-428 402.6348,-422 402.6348,-416 402.6348,-416 402.6348,-404 402.6348,-404 402.6348,-398 408.6348,-392 414.6348,-392 414.6348,-392 511.5938,-392 511.5938,-392 517.5938,-392 523.5938,-398 523.5938,-404 523.5938,-404 523.5938,-416 523.5938,-416 523.5938,-422 517.5938,-428 511.5938,-428"/>
<text text-anchor="middle" x="463.1143" y="-405.8" font-family="Times,serif" font-size="14.00" fill="#000000">MutableCollection</text>
</g>
<!-- MutableCollection&#45;&gt;Collection -->
<g id="edge24" class="edge">
<title>MutableCollection&#45;&gt;Collection</title>
<path fill="none" stroke="#000000" d="M523.6552,-410C570.988,-410 635.8641,-410 679.496,-410"/>
<polygon fill="#000000" stroke="#000000" points="679.5601,-413.5001 689.5601,-410 679.5601,-406.5001 679.5601,-413.5001"/>
</g>
<!-- RangeReplaceableCollection -->
<g id="node29" class="node">
<title>RangeReplaceableCollection</title>
<path fill="none" stroke="#ff0000" stroke-dasharray="5,2" d="M321.4016,-574C321.4016,-574 166.4197,-574 166.4197,-574 160.4197,-574 154.4197,-568 154.4197,-562 154.4197,-562 154.4197,-550 154.4197,-550 154.4197,-544 160.4197,-538 166.4197,-538 166.4197,-538 321.4016,-538 321.4016,-538 327.4016,-538 333.4016,-544 333.4016,-550 333.4016,-550 333.4016,-562 333.4016,-562 333.4016,-568 327.4016,-574 321.4016,-574"/>
<text text-anchor="middle" x="243.9106" y="-551.8" font-family="Times,serif" font-size="14.00" fill="#000000">RangeReplaceableCollection</text>
</g>
<!-- RangeReplaceableCollection&#45;&gt;Collection -->
<g id="edge25" class="edge">
<title>RangeReplaceableCollection&#45;&gt;Collection</title>
<path fill="none" stroke="#000000" d="M332.9346,-537.9592C415.0827,-521.1474 527.343,-497.6945 547.7109,-491 595.6671,-475.2378 648.0078,-450.6783 683.687,-432.7326"/>
<polygon fill="#000000" stroke="#000000" points="685.5028,-435.7362 692.8379,-428.0911 682.3363,-429.4933 685.5028,-435.7362"/>
</g>
<!-- IteratorProtocol -->
<g id="node30" class="node">
<title>IteratorProtocol</title>
<path fill="none" stroke="#ff0000" stroke-dasharray="5,2" d="M284.046,-136C284.046,-136 203.7752,-136 203.7752,-136 197.7752,-136 191.7752,-130 191.7752,-124 191.7752,-124 191.7752,-112 191.7752,-112 191.7752,-106 197.7752,-100 203.7752,-100 203.7752,-100 284.046,-100 284.046,-100 290.046,-100 296.046,-106 296.046,-112 296.046,-112 296.046,-124 296.046,-124 296.046,-130 290.046,-136 284.046,-136"/>
<text text-anchor="middle" x="243.9106" y="-113.8" font-family="Times,serif" font-size="14.00" fill="#000000">IteratorProtocol</text>
</g>
<!-- StringProtocol -->
<g id="node31" class="node">
<title>StringProtocol</title>
<path fill="none" stroke="#ff0000" stroke-dasharray="5,2" d="M280.5801,-666C280.5801,-666 207.2411,-666 207.2411,-666 201.2411,-666 195.2411,-660 195.2411,-654 195.2411,-654 195.2411,-642 195.2411,-642 195.2411,-636 201.2411,-630 207.2411,-630 207.2411,-630 280.5801,-630 280.5801,-630 286.5801,-630 292.5801,-636 292.5801,-642 292.5801,-642 292.5801,-654 292.5801,-654 292.5801,-660 286.5801,-666 280.5801,-666"/>
<text text-anchor="middle" x="243.9106" y="-643.8" font-family="Times,serif" font-size="14.00" fill="#000000">StringProtocol</text>
</g>
<!-- StringProtocol&#45;&gt;LosslessStringConvertible -->
<g id="edge28" class="edge">
<title>StringProtocol&#45;&gt;LosslessStringConvertible</title>
<path fill="none" stroke="#000000" d="M287.3225,-666.1276C307.404,-676.7875 329.618,-692.2889 342.5176,-713 409.7823,-820.9977 297.1405,-899.195 378.5176,-997 379.1215,-997.7259 379.745,-998.4325 380.3867,-999.1203"/>
<polygon fill="#000000" stroke="#000000" points="378.1011,-1001.7714 387.9023,-1005.7947 382.7493,-996.5374 378.1011,-1001.7714"/>
</g>
<!-- StringProtocol&#45;&gt;Hashable -->
<g id="edge29" class="edge">
<title>StringProtocol&#45;&gt;Hashable</title>
<path fill="none" stroke="#000000" d="M275.6966,-666.0278C302.9509,-681.466 343.2788,-704.2634 378.5176,-724 469.5399,-774.9799 492.2964,-787.7267 583.7109,-838 617.6386,-856.6585 656.1919,-877.6321 684.7558,-893.1276"/>
<polygon fill="#000000" stroke="#000000" points="683.2011,-896.2659 693.6602,-897.9562 686.538,-890.1124 683.2011,-896.2659"/>
</g>
<!-- StringProtocol&#45;&gt;Comparable -->
<g id="edge30" class="edge">
<title>StringProtocol&#45;&gt;Comparable</title>
<path fill="none" stroke="#000000" d="M292.74,-665.113C318.1183,-673.6202 349.7626,-683.6296 378.5176,-691 452.7325,-710.0224 473.4359,-705.2136 547.7109,-724 700.635,-762.6791 877.4221,-822.0133 963.0931,-851.723"/>
<polygon fill="#000000" stroke="#000000" points="961.9908,-855.0453 972.5856,-855.0232 964.2895,-848.4334 961.9908,-855.0453"/>
</g>
<!-- StringProtocol&#45;&gt;ExpressibleByStringLiteral -->
<g id="edge31" class="edge">
<title>StringProtocol&#45;&gt;ExpressibleByStringLiteral</title>
<path fill="none" stroke="#000000" d="M292.8314,-639.5194C315.0968,-635.6595 342.2409,-630.954 368.2563,-626.4441"/>
<polygon fill="#000000" stroke="#000000" points="368.904,-629.8841 378.1592,-624.7274 367.7083,-622.987 368.904,-629.8841"/>
</g>
<!-- StringProtocol&#45;&gt;BidirectionalCollection -->
<g id="edge32" class="edge">
<title>StringProtocol&#45;&gt;BidirectionalCollection</title>
<path fill="none" stroke="#000000" d="M278.3253,-629.9238C298.4877,-618.2671 323.6206,-601.799 342.5176,-583 362.9666,-562.657 358.8176,-550.0692 378.5176,-529 392.713,-513.818 410.7189,-499.4561 426.4667,-488.1127"/>
<polygon fill="#000000" stroke="#000000" points="428.7886,-490.7581 434.9447,-482.1352 424.755,-485.0371 428.7886,-490.7581"/>
</g>
<!-- TextOutputStream -->
<g id="node34" class="node">
<title>TextOutputStream</title>
<path fill="none" stroke="#ff0000" stroke-dasharray="5,2" d="M510.8371,-574C510.8371,-574 415.3914,-574 415.3914,-574 409.3914,-574 403.3914,-568 403.3914,-562 403.3914,-562 403.3914,-550 403.3914,-550 403.3914,-544 409.3914,-538 415.3914,-538 415.3914,-538 510.8371,-538 510.8371,-538 516.8371,-538 522.8371,-544 522.8371,-550 522.8371,-550 522.8371,-562 522.8371,-562 522.8371,-568 516.8371,-574 510.8371,-574"/>
<text text-anchor="middle" x="463.1143" y="-551.8" font-family="Times,serif" font-size="14.00" fill="#000000">TextOutputStream</text>
</g>
<!-- StringProtocol&#45;&gt;TextOutputStream -->
<g id="edge33" class="edge">
<title>StringProtocol&#45;&gt;TextOutputStream</title>
<path fill="none" stroke="#000000" d="M277.8934,-629.9401C304.7566,-616.0698 343.4437,-596.9847 378.5176,-583 383.3172,-581.0863 388.31,-579.2109 393.3633,-577.3966"/>
<polygon fill="#000000" stroke="#000000" points="394.8339,-580.5904 403.1206,-573.9888 392.5257,-573.9818 394.8339,-580.5904"/>
</g>
<!-- TextOutputStreamable -->
<g id="node35" class="node">
<title>TextOutputStreamable</title>
<path fill="none" stroke="#ff0000" stroke-dasharray="5,2" d="M522.155,-682C522.155,-682 404.0735,-682 404.0735,-682 398.0735,-682 392.0735,-676 392.0735,-670 392.0735,-670 392.0735,-658 392.0735,-658 392.0735,-652 398.0735,-646 404.0735,-646 404.0735,-646 522.155,-646 522.155,-646 528.155,-646 534.155,-652 534.155,-658 534.155,-658 534.155,-670 534.155,-670 534.155,-676 528.155,-682 522.155,-682"/>
<text text-anchor="middle" x="463.1143" y="-659.8" font-family="Times,serif" font-size="14.00" fill="#000000">TextOutputStreamable</text>
</g>
<!-- StringProtocol&#45;&gt;TextOutputStreamable -->
<g id="edge34" class="edge">
<title>StringProtocol&#45;&gt;TextOutputStreamable</title>
<path fill="none" stroke="#000000" d="M292.8314,-651.5708C319.0187,-653.4823 351.9549,-655.8863 381.8658,-658.0696"/>
<polygon fill="#000000" stroke="#000000" points="381.6512,-661.5631 391.8795,-658.8005 382.1608,-654.5817 381.6512,-661.5631"/>
</g>
<!-- Encodable -->
<g id="node32" class="node">
<title>Encodable</title>
<path fill="none" stroke="#ff0000" stroke-dasharray="5,2" d="M269.4937,-320C269.4937,-320 218.3276,-320 218.3276,-320 212.3276,-320 206.3276,-314 206.3276,-308 206.3276,-308 206.3276,-296 206.3276,-296 206.3276,-290 212.3276,-284 218.3276,-284 218.3276,-284 269.4937,-284 269.4937,-284 275.4937,-284 281.4937,-290 281.4937,-296 281.4937,-296 281.4937,-308 281.4937,-308 281.4937,-314 275.4937,-320 269.4937,-320"/>
<text text-anchor="middle" x="243.9106" y="-297.8" font-family="Times,serif" font-size="14.00" fill="#000000">Encodable</text>
</g>
<!-- Decodable -->
<g id="node33" class="node">
<title>Decodable</title>
<path fill="none" stroke="#ff0000" stroke-dasharray="5,2" d="M269.7663,-374C269.7663,-374 218.055,-374 218.055,-374 212.055,-374 206.055,-368 206.055,-362 206.055,-362 206.055,-350 206.055,-350 206.055,-344 212.055,-338 218.055,-338 218.055,-338 269.7663,-338 269.7663,-338 275.7663,-338 281.7663,-344 281.7663,-350 281.7663,-350 281.7663,-362 281.7663,-362 281.7663,-368 275.7663,-374 269.7663,-374"/>
<text text-anchor="middle" x="243.9106" y="-351.8" font-family="Times,serif" font-size="14.00" fill="#000000">Decodable</text>
</g>
<!-- Int -->
<g id="node36" class="node">
<title>Int</title>
<path fill="none" stroke="#0000ff" stroke-width="3" d="M69.6519,-1115C69.6519,-1115 39.6519,-1115 39.6519,-1115 33.6519,-1115 27.6519,-1109 27.6519,-1103 27.6519,-1103 27.6519,-1091 27.6519,-1091 27.6519,-1085 33.6519,-1079 39.6519,-1079 39.6519,-1079 69.6519,-1079 69.6519,-1079 75.6519,-1079 81.6519,-1085 81.6519,-1091 81.6519,-1091 81.6519,-1103 81.6519,-1103 81.6519,-1109 75.6519,-1115 69.6519,-1115"/>
<text text-anchor="middle" x="54.6519" y="-1092.8" font-family="Times,serif" font-size="14.00" fill="#000000">Int</text>
</g>
<!-- Int&#45;&gt;FixedWidthInteger -->
<g id="edge35" class="edge">
<title>Int&#45;&gt;FixedWidthInteger</title>
<path fill="none" stroke="#000000" d="M81.768,-1093.1316C105.4709,-1089.7501 140.9655,-1084.6863 172.7075,-1080.158"/>
<polygon fill="#000000" stroke="#000000" points="173.4564,-1083.5867 182.8618,-1078.7093 172.4677,-1076.6568 173.4564,-1083.5867"/>
</g>
<!-- Int&#45;&gt;SignedInteger -->
<g id="edge36" class="edge">
<title>Int&#45;&gt;SignedInteger</title>
<path fill="none" stroke="#000000" d="M81.768,-1100.8684C109.0251,-1104.757 151.8754,-1110.8701 186.681,-1115.8355"/>
<polygon fill="#000000" stroke="#000000" points="186.3362,-1119.3217 196.7303,-1117.2692 187.3249,-1112.3919 186.3362,-1119.3217"/>
</g>
<!-- Float -->
<g id="node37" class="node">
<title>Float</title>
<path fill="none" stroke="#0000ff" stroke-width="3" d="M69.6519,-866C69.6519,-866 39.6519,-866 39.6519,-866 33.6519,-866 27.6519,-860 27.6519,-854 27.6519,-854 27.6519,-842 27.6519,-842 27.6519,-836 33.6519,-830 39.6519,-830 39.6519,-830 69.6519,-830 69.6519,-830 75.6519,-830 81.6519,-836 81.6519,-842 81.6519,-842 81.6519,-854 81.6519,-854 81.6519,-860 75.6519,-866 69.6519,-866"/>
<text text-anchor="middle" x="54.6519" y="-843.8" font-family="Times,serif" font-size="14.00" fill="#000000">Float</text>
</g>
<!-- Float&#45;&gt;LosslessStringConvertible -->
<g id="edge37" class="edge">
<title>Float&#45;&gt;LosslessStringConvertible</title>
<path fill="none" stroke="#000000" d="M81.748,-856.7393C149.1348,-878.6078 320.4596,-935.0795 342.5176,-951 363.5683,-966.1935 357.2067,-982.1736 378.5176,-997 380.6215,-998.4638 382.809,-999.8513 385.0602,-1001.1663"/>
<polygon fill="#000000" stroke="#000000" points="383.5395,-1004.3211 394.0181,-1005.8867 386.8029,-998.1283 383.5395,-1004.3211"/>
</g>
<!-- Float&#45;&gt;CustomDebugStringConvertible -->
<g id="edge38" class="edge">
<title>Float&#45;&gt;CustomDebugStringConvertible</title>
<path fill="none" stroke="#000000" d="M70.1948,-829.8661C86.9457,-811.4358 115.2696,-783.3394 145.3037,-767 148.5755,-765.2201 151.9734,-763.5505 155.4549,-761.9852"/>
<polygon fill="#000000" stroke="#000000" points="156.9486,-765.1547 164.8362,-758.0811 154.259,-758.692 156.9486,-765.1547"/>
</g>
<!-- Float&#45;&gt;BinaryFloatingPoint -->
<g id="edge39" class="edge">
<title>Float&#45;&gt;BinaryFloatingPoint</title>
<path fill="none" stroke="#000000" d="M81.768,-848C104.3581,-848 137.6589,-848 168.2139,-848"/>
<polygon fill="#000000" stroke="#000000" points="168.4514,-851.5001 178.4513,-848 168.4513,-844.5001 168.4514,-851.5001"/>
</g>
<!-- Bool -->
<g id="node38" class="node">
<title>Bool</title>
<path fill="none" stroke="#0000ff" stroke-width="3" d="M69.6519,-996C69.6519,-996 39.6519,-996 39.6519,-996 33.6519,-996 27.6519,-990 27.6519,-984 27.6519,-984 27.6519,-972 27.6519,-972 27.6519,-966 33.6519,-960 39.6519,-960 39.6519,-960 69.6519,-960 69.6519,-960 75.6519,-960 81.6519,-966 81.6519,-972 81.6519,-972 81.6519,-984 81.6519,-984 81.6519,-990 75.6519,-996 69.6519,-996"/>
<text text-anchor="middle" x="54.6519" y="-973.8" font-family="Times,serif" font-size="14.00" fill="#000000">Bool</text>
</g>
<!-- Bool&#45;&gt;LosslessStringConvertible -->
<g id="edge40" class="edge">
<title>Bool&#45;&gt;LosslessStringConvertible</title>
<path fill="none" stroke="#000000" d="M82.0285,-987.9471C99.8119,-993.9591 123.6336,-1001.1776 145.3037,-1005 220.6119,-1018.2837 307.3426,-1022.7588 371.1554,-1024.0665"/>
<polygon fill="#000000" stroke="#000000" points="371.1326,-1027.5666 381.1949,-1024.25 371.2606,-1020.5677 371.1326,-1027.5666"/>
</g>
<!-- Bool&#45;&gt;Hashable -->
<g id="edge41" class="edge">
<title>Bool&#45;&gt;Hashable</title>
<path fill="none" stroke="#000000" d="M82.029,-968.0557C99.8126,-962.0448 123.6343,-954.8266 145.3037,-951 343.567,-915.989 585.0892,-914.2599 682.8145,-915.2256"/>
<polygon fill="#000000" stroke="#000000" points="682.8761,-918.7265 692.9152,-915.3405 682.9557,-911.7269 682.8761,-918.7265"/>
</g>
<!-- Bool&#45;&gt;ExpressibleByBooleanLiteral -->
<g id="edge42" class="edge">
<title>Bool&#45;&gt;ExpressibleByBooleanLiteral</title>
<path fill="none" stroke="#000000" d="M81.768,-978C98.2395,-978 120.4053,-978 143.049,-978"/>
<polygon fill="#000000" stroke="#000000" points="143.1162,-981.5001 153.1161,-978 143.1161,-974.5001 143.1162,-981.5001"/>
</g>
<!-- String -->
<g id="node39" class="node">
<title>String</title>
<path fill="none" stroke="#0000ff" stroke-width="3" d="M69.6519,-666C69.6519,-666 39.6519,-666 39.6519,-666 33.6519,-666 27.6519,-660 27.6519,-654 27.6519,-654 27.6519,-642 27.6519,-642 27.6519,-636 33.6519,-630 39.6519,-630 39.6519,-630 69.6519,-630 69.6519,-630 75.6519,-630 81.6519,-636 81.6519,-642 81.6519,-642 81.6519,-654 81.6519,-654 81.6519,-660 75.6519,-666 69.6519,-666"/>
<text text-anchor="middle" x="54.6519" y="-643.8" font-family="Times,serif" font-size="14.00" fill="#000000">String</text>
</g>
<!-- String&#45;&gt;CustomDebugStringConvertible -->
<g id="edge43" class="edge">
<title>String&#45;&gt;CustomDebugStringConvertible</title>
<path fill="none" stroke="#000000" d="M81.768,-661.1814C111.8862,-675.822 161.043,-699.7174 197.3481,-717.3656"/>
<polygon fill="#000000" stroke="#000000" points="196.2264,-720.7119 206.7503,-721.9361 199.2868,-714.4164 196.2264,-720.7119"/>
</g>
<!-- String&#45;&gt;RangeReplaceableCollection -->
<g id="edge44" class="edge">
<title>String&#45;&gt;RangeReplaceableCollection</title>
<path fill="none" stroke="#000000" d="M81.768,-634.8186C111.8862,-620.178 161.043,-596.2826 197.3481,-578.6344"/>
<polygon fill="#000000" stroke="#000000" points="199.2868,-581.5836 206.7503,-574.0639 196.2264,-575.2881 199.2868,-581.5836"/>
</g>
<!-- String&#45;&gt;StringProtocol -->
<g id="edge45" class="edge">
<title>String&#45;&gt;StringProtocol</title>
<path fill="none" stroke="#000000" d="M81.768,-648C108.5376,-648 150.3476,-648 184.8059,-648"/>
<polygon fill="#000000" stroke="#000000" points="185.2391,-651.5001 195.239,-648 185.239,-644.5001 185.2391,-651.5001"/>
</g>
<!-- Array -->
<g id="node40" class="node">
<title>Array</title>
<path fill="none" stroke="#0000ff" stroke-width="3" d="M69.6519,-451C69.6519,-451 39.6519,-451 39.6519,-451 33.6519,-451 27.6519,-445 27.6519,-439 27.6519,-439 27.6519,-427 27.6519,-427 27.6519,-421 33.6519,-415 39.6519,-415 39.6519,-415 69.6519,-415 69.6519,-415 75.6519,-415 81.6519,-421 81.6519,-427 81.6519,-427 81.6519,-439 81.6519,-439 81.6519,-445 75.6519,-451 69.6519,-451"/>
<text text-anchor="middle" x="54.6519" y="-428.8" font-family="Times,serif" font-size="14.00" fill="#000000">Array</text>
</g>
<!-- Array&#45;&gt;ExpressibleByArrayLiteral -->
<g id="edge49" class="edge">
<title>Array&#45;&gt;ExpressibleByArrayLiteral</title>
<path fill="none" stroke="#000000" d="M81.768,-429.7047C99.995,-427.4896 125.1949,-424.4271 150.2992,-421.3763"/>
<polygon fill="#000000" stroke="#000000" points="150.7702,-424.8449 160.2749,-420.164 149.9256,-417.896 150.7702,-424.8449"/>
</g>
<!-- Array&#45;&gt;RandomAccessCollection -->
<g id="edge50" class="edge">
<title>Array&#45;&gt;RandomAccessCollection</title>
<path fill="none" stroke="#000000" d="M81.8192,-444.7006C99.7212,-452.2587 123.752,-462.117 145.3037,-470 155.2685,-473.6449 165.8731,-477.308 176.2943,-480.7877"/>
<polygon fill="#000000" stroke="#000000" points="175.1964,-484.111 185.7897,-483.926 177.3932,-477.4646 175.1964,-484.111"/>
</g>
<!-- Array&#45;&gt;MutableCollection -->
<g id="edge51" class="edge">
<title>Array&#45;&gt;MutableCollection</title>
<path fill="none" stroke="#000000" d="M82.0133,-434.5219C99.9949,-435.4444 124.0417,-436.5311 145.3037,-437 232.933,-438.9324 255.3979,-446.6332 342.5176,-437 358.8531,-435.1937 376.2103,-432.0509 392.5151,-428.5332"/>
<polygon fill="#000000" stroke="#000000" points="393.5146,-431.8964 402.5127,-426.3031 391.9905,-425.0643 393.5146,-431.8964"/>
</g>
<!-- Array&#45;&gt;RangeReplaceableCollection -->
<g id="edge52" class="edge">
<title>Array&#45;&gt;RangeReplaceableCollection</title>
<path fill="none" stroke="#000000" d="M66.8817,-451.0497C82.5389,-472.7688 111.696,-508.8247 145.3037,-529 148.119,-530.6901 151.0424,-532.2769 154.0435,-533.7665"/>
<polygon fill="#000000" stroke="#000000" points="152.6976,-536.9993 163.2497,-537.9501 155.5936,-530.6265 152.6976,-536.9993"/>
</g>
<!-- Array&#45;&gt;Encodable -->
<g id="edge53" class="edge">
<title>Array&#45;&gt;Encodable</title>
<path fill="none" stroke="#000000" d="M65.7314,-414.6447C80.8121,-391.2403 110.0058,-351.1578 145.3037,-329 160.635,-319.376 179.4003,-313.135 196.4305,-309.1088"/>
<polygon fill="#000000" stroke="#000000" points="197.1874,-312.5261 206.218,-306.9854 195.7032,-305.6853 197.1874,-312.5261"/>
</g>
<!-- Array&#45;&gt;Decodable -->
<g id="edge54" class="edge">
<title>Array&#45;&gt;Decodable</title>
<path fill="none" stroke="#000000" d="M81.9841,-415.6915C99.5519,-405.1364 123.1548,-391.992 145.3037,-383 161.3743,-376.4756 179.5438,-370.9981 195.8681,-366.7189"/>
<polygon fill="#000000" stroke="#000000" points="196.9259,-370.0615 205.7587,-364.2106 195.2051,-363.2763 196.9259,-370.0615"/>
</g>
<!-- Dictionary -->
<g id="node41" class="node">
<title>Dictionary</title>
<path fill="none" stroke="#0000ff" stroke-width="3" d="M80.5211,-297C80.5211,-297 28.7826,-297 28.7826,-297 22.7826,-297 16.7826,-291 16.7826,-285 16.7826,-285 16.7826,-273 16.7826,-273 16.7826,-267 22.7826,-261 28.7826,-261 28.7826,-261 80.5211,-261 80.5211,-261 86.5211,-261 92.5211,-267 92.5211,-273 92.5211,-273 92.5211,-285 92.5211,-285 92.5211,-291 86.5211,-297 80.5211,-297"/>
<text text-anchor="middle" x="54.6519" y="-274.8" font-family="Times,serif" font-size="14.00" fill="#000000">Dictionary</text>
</g>
<!-- Dictionary&#45;&gt;ExpressibleByDictionaryLiteral -->
<g id="edge55" class="edge">
<title>Dictionary&#45;&gt;ExpressibleByDictionaryLiteral</title>
<path fill="none" stroke="#000000" d="M92.783,-262.7071C108.8855,-256.0173 127.9027,-248.3648 145.3037,-242 155.2685,-238.3551 165.8731,-234.692 176.2943,-231.2123"/>
<polygon fill="#000000" stroke="#000000" points="177.3932,-234.5354 185.7897,-228.074 175.1964,-227.889 177.3932,-234.5354"/>
</g>
<!-- Dictionary&#45;&gt;Collection -->
<g id="edge56" class="edge">
<title>Dictionary&#45;&gt;Collection</title>
<path fill="none" stroke="#000000" d="M92.7134,-274.1032C148.1333,-267.9565 254.0764,-259.9244 342.5176,-275 469.1627,-296.5878 609.6033,-355.4797 680.5402,-387.8887"/>
<polygon fill="#000000" stroke="#000000" points="679.1196,-391.0877 689.6671,-392.088 682.0456,-384.7285 679.1196,-391.0877"/>
</g>
<!-- Dictionary&#45;&gt;Encodable -->
<g id="edge57" class="edge">
<title>Dictionary&#45;&gt;Encodable</title>
<path fill="none" stroke="#000000" d="M92.9512,-283.6544C122.7751,-287.2788 164.3358,-292.3295 196.3003,-296.2141"/>
<polygon fill="#000000" stroke="#000000" points="195.9649,-299.699 206.3142,-297.431 196.8095,-292.7501 195.9649,-299.699"/>
</g>
<!-- Dictionary&#45;&gt;Decodable -->
<g id="edge58" class="edge">
<title>Dictionary&#45;&gt;Decodable</title>
<path fill="none" stroke="#000000" d="M83.182,-297.0266C100.616,-307.4545 123.6544,-320.2108 145.3037,-329 161.3743,-335.5244 179.5438,-341.0019 195.8681,-345.2811"/>
<polygon fill="#000000" stroke="#000000" points="195.2051,-348.7237 205.7587,-347.7894 196.9259,-341.9385 195.2051,-348.7237"/>
</g>
<!-- Range -->
<g id="node42" class="node">
<title>Range</title>
<path fill="none" stroke="#0000ff" stroke-width="3" d="M69.6519,-758C69.6519,-758 39.6519,-758 39.6519,-758 33.6519,-758 27.6519,-752 27.6519,-746 27.6519,-746 27.6519,-734 27.6519,-734 27.6519,-728 33.6519,-722 39.6519,-722 39.6519,-722 69.6519,-722 69.6519,-722 75.6519,-722 81.6519,-728 81.6519,-734 81.6519,-734 81.6519,-746 81.6519,-746 81.6519,-752 75.6519,-758 69.6519,-758"/>
<text text-anchor="middle" x="54.6519" y="-735.8" font-family="Times,serif" font-size="14.00" fill="#000000">Range</text>
</g>
<!-- Range&#45;&gt;CustomDebugStringConvertible -->
<g id="edge46" class="edge">
<title>Range&#45;&gt;CustomDebugStringConvertible</title>
<path fill="none" stroke="#000000" d="M81.768,-740C96.2827,-740 115.2191,-740 135.0079,-740"/>
<polygon fill="#000000" stroke="#000000" points="135.0937,-743.5001 145.0936,-740 135.0936,-736.5001 135.0937,-743.5001"/>
</g>
<!-- Range&#45;&gt;Equatable -->
<g id="edge47" class="edge">
<title>Range&#45;&gt;Equatable</title>
<path fill="none" stroke="#000000" d="M81.9573,-729.611C99.7124,-723.4227 123.5291,-716.1738 145.3037,-713 232.0378,-700.3579 255.1648,-705.7809 342.5176,-713 693.2729,-741.9874 784.9447,-747.403 1123.6641,-843 1150.0223,-850.4391 1178.4136,-861.7123 1201.3011,-871.6725"/>
<polygon fill="#000000" stroke="#000000" points="1200.1894,-875.0076 1210.7511,-875.8458 1203.0173,-868.6042 1200.1894,-875.0076"/>
</g>
<!-- Range&#45;&gt;RangeExpression -->
<g id="edge48" class="edge">
<title>Range&#45;&gt;RangeExpression</title>
<path fill="none" stroke="#000000" d="M81.9774,-748.3109C99.9444,-753.7329 123.9882,-760.9082 145.3037,-767 155.5607,-769.9314 166.4366,-772.9745 177.0755,-775.9154"/>
<polygon fill="#000000" stroke="#000000" points="176.1842,-779.3001 186.7546,-778.5813 178.043,-772.5514 176.1842,-779.3001"/>
</g>
<!-- UnfoldSequence -->
<g id="node43" class="node">
<title>UnfoldSequence</title>
<path fill="none" stroke="#0000ff" stroke-width="3" d="M97.456,-163C97.456,-163 11.8477,-163 11.8477,-163 5.8477,-163 -.1523,-157 -.1523,-151 -.1523,-151 -.1523,-139 -.1523,-139 -.1523,-133 5.8477,-127 11.8477,-127 11.8477,-127 97.456,-127 97.456,-127 103.456,-127 109.456,-133 109.456,-139 109.456,-139 109.456,-151 109.456,-151 109.456,-157 103.456,-163 97.456,-163"/>
<text text-anchor="middle" x="54.6519" y="-140.8" font-family="Times,serif" font-size="14.00" fill="#000000">UnfoldSequence</text>
</g>
<!-- UnfoldSequence&#45;&gt;Sequence -->
<g id="edge59" class="edge">
<title>UnfoldSequence&#45;&gt;Sequence</title>
<path fill="none" stroke="#000000" d="M109.3087,-145.6521C167.2176,-146.1902 261.3218,-146.6294 342.5176,-145 578.7972,-140.2585 861.4941,-126.1547 969.762,-120.4427"/>
<polygon fill="#000000" stroke="#000000" points="970.1887,-123.9251 979.9894,-119.9006 969.8182,-116.9349 970.1887,-123.9251"/>
</g>
<!-- UnfoldSequence&#45;&gt;IteratorProtocol -->
<g id="edge60" class="edge">
<title>UnfoldSequence&#45;&gt;IteratorProtocol</title>
<path fill="none" stroke="#000000" d="M109.3933,-137.1905C131.9315,-133.9751 158.1648,-130.2327 181.4488,-126.9109"/>
<polygon fill="#000000" stroke="#000000" points="182.1649,-130.3443 191.5704,-125.467 181.1762,-123.4144 182.1649,-130.3443"/>
</g>
<!-- StrideTo -->
<g id="node44" class="node">
<title>StrideTo</title>
<path fill="none" stroke="#0000ff" stroke-width="3" d="M74.6675,-90C74.6675,-90 34.6362,-90 34.6362,-90 28.6362,-90 22.6362,-84 22.6362,-78 22.6362,-78 22.6362,-66 22.6362,-66 22.6362,-60 28.6362,-54 34.6362,-54 34.6362,-54 74.6675,-54 74.6675,-54 80.6675,-54 86.6675,-60 86.6675,-66 86.6675,-66 86.6675,-78 86.6675,-78 86.6675,-84 80.6675,-90 74.6675,-90"/>
<text text-anchor="middle" x="54.6519" y="-67.8" font-family="Times,serif" font-size="14.00" fill="#000000">StrideTo</text>
</g>
<!-- StrideTo&#45;&gt;Sequence -->
<g id="edge61" class="edge">
<title>StrideTo&#45;&gt;Sequence</title>
<path fill="none" stroke="#000000" d="M86.8782,-73.5437C229.4687,-80.3738 803.9072,-107.8896 969.8695,-115.8393"/>
<polygon fill="#000000" stroke="#000000" points="970.0455,-119.3517 980.2015,-116.3342 970.3805,-112.3597 970.0455,-119.3517"/>
</g>
<!-- Zip2Sequence -->
<g id="node45" class="node">
<title>Zip2Sequence</title>
<path fill="none" stroke="#0000ff" stroke-width="3" d="M90.7349,-36C90.7349,-36 18.5688,-36 18.5688,-36 12.5688,-36 6.5688,-30 6.5688,-24 6.5688,-24 6.5688,-12 6.5688,-12 6.5688,-6 12.5688,0 18.5688,0 18.5688,0 90.7349,0 90.7349,0 96.7349,0 102.7349,-6 102.7349,-12 102.7349,-12 102.7349,-24 102.7349,-24 102.7349,-30 96.7349,-36 90.7349,-36"/>
<text text-anchor="middle" x="54.6519" y="-13.8" font-family="Times,serif" font-size="14.00" fill="#000000">Zip2Sequence</text>
</g>
<!-- Zip2Sequence&#45;&gt;Sequence -->
<g id="edge62" class="edge">
<title>Zip2Sequence&#45;&gt;Sequence</title>
<path fill="none" stroke="#000000" d="M103.0342,-21.4886C229.4507,-30.8374 579.9611,-58.2574 870.291,-95 903.8888,-99.252 941.6774,-105.3028 970.2087,-110.131"/>
<polygon fill="#000000" stroke="#000000" points="969.8302,-113.617 980.2764,-111.849 971.0077,-106.7167 969.8302,-113.617"/>
</g>
</g>
</svg>
