<?xml version="1.0" encoding="UTF-8" standalone="no"?>
<!DOCTYPE svg PUBLIC "-//W3C//DTD SVG 1.1//EN"
 "http://www.w3.org/Graphics/SVG/1.1/DTD/svg11.dtd">
<!-- Generated by graphviz version 2.40.1 (20161225.0304)
 -->
<!-- Title: swift_standard_library Pages: 1 -->
<svg width="1342pt" height="1088pt"
 viewBox="0.00 0.00 1342.27 1088.00" xmlns="http://www.w3.org/2000/svg" xmlns:xlink="http://www.w3.org/1999/xlink">
<g id="graph0" class="graph" transform="scale(1 1) rotate(0) translate(4 1084)">
<title>swift_standard_library</title>
<polygon fill="#ffffff" stroke="transparent" points="-4,4 -4,-1084 1338.2715,-1084 1338.2715,4 -4,4"/>
<!-- CustomStringConvertible -->
<g id="node1" class="node">
<title>CustomStringConvertible</title>
<path fill="none" stroke="#ff0000" stroke-dasharray="5,2" d="M794.8907,-950C794.8907,-950 659.1113,-950 659.1113,-950 653.1113,-950 647.1113,-944 647.1113,-938 647.1113,-938 647.1113,-926 647.1113,-926 647.1113,-920 653.1113,-914 659.1113,-914 659.1113,-914 794.8907,-914 794.8907,-914 800.8907,-914 806.8907,-920 806.8907,-926 806.8907,-926 806.8907,-938 806.8907,-938 806.8907,-944 800.8907,-950 794.8907,-950"/>
<text text-anchor="middle" x="727.001" y="-927.8" font-family="Times,serif" font-size="14.00" fill="#000000">CustomStringConvertible</text>
</g>
<!-- LosslessStringConvertible -->
<g id="node2" class="node">
<title>LosslessStringConvertible</title>
<path fill="none" stroke="#ff0000" stroke-dasharray="5,2" d="M532.8869,-950C532.8869,-950 393.3416,-950 393.3416,-950 387.3416,-950 381.3416,-944 381.3416,-938 381.3416,-938 381.3416,-926 381.3416,-926 381.3416,-920 387.3416,-914 393.3416,-914 393.3416,-914 532.8869,-914 532.8869,-914 538.8869,-914 544.8869,-920 544.8869,-926 544.8869,-926 544.8869,-938 544.8869,-938 544.8869,-944 538.8869,-950 532.8869,-950"/>
<text text-anchor="middle" x="463.1143" y="-927.8" font-family="Times,serif" font-size="14.00" fill="#000000">LosslessStringConvertible</text>
</g>
<!-- LosslessStringConvertible&#45;&gt;CustomStringConvertible -->
<g id="edge1" class="edge">
<title>LosslessStringConvertible&#45;&gt;CustomStringConvertible</title>
<path fill="none" stroke="#000000" d="M545.1631,-932C574.1261,-932 606.8506,-932 636.4751,-932"/>
<polygon fill="#000000" stroke="#000000" points="636.8132,-935.5001 646.8131,-932 636.8131,-928.5001 636.8132,-935.5001"/>
</g>
<!-- CustomDebugStringConvertible -->
<g id="node3" class="node">
<title>CustomDebugStringConvertible</title>
<path fill="none" stroke="#ff0000" stroke-dasharray="5,2" d="M330.6246,-739C330.6246,-739 157.1967,-739 157.1967,-739 151.1967,-739 145.1967,-733 145.1967,-727 145.1967,-727 145.1967,-715 145.1967,-715 145.1967,-709 151.1967,-703 157.1967,-703 157.1967,-703 330.6246,-703 330.6246,-703 336.6246,-703 342.6246,-709 342.6246,-715 342.6246,-715 342.6246,-727 342.6246,-727 342.6246,-733 336.6246,-739 330.6246,-739"/>
<text text-anchor="middle" x="243.9106" y="-716.8" font-family="Times,serif" font-size="14.00" fill="#000000">CustomDebugStringConvertible</text>
</g>
<!-- Hashable -->
<g id="node4" class="node">
<title>Hashable</title>
<path fill="none" stroke="#ff0000" stroke-dasharray="5,2" d="M749.0909,-819C749.0909,-819 704.9111,-819 704.9111,-819 698.9111,-819 692.9111,-813 692.9111,-807 692.9111,-807 692.9111,-795 692.9111,-795 692.9111,-789 698.9111,-783 704.9111,-783 704.9111,-783 749.0909,-783 749.0909,-783 755.0909,-783 761.0909,-789 761.0909,-795 761.0909,-795 761.0909,-807 761.0909,-807 761.0909,-813 755.0909,-819 749.0909,-819"/>
<text text-anchor="middle" x="727.001" y="-796.8" font-family="Times,serif" font-size="14.00" fill="#000000">Hashable</text>
</g>
<!-- Equatable -->
<g id="node5" class="node">
<title>Equatable</title>
<path fill="none" stroke="#ff0000" stroke-dasharray="5,2" d="M1270.9404,-796C1270.9404,-796 1222.9951,-796 1222.9951,-796 1216.9951,-796 1210.9951,-790 1210.9951,-784 1210.9951,-784 1210.9951,-772 1210.9951,-772 1210.9951,-766 1216.9951,-760 1222.9951,-760 1222.9951,-760 1270.9404,-760 1270.9404,-760 1276.9404,-760 1282.9404,-766 1282.9404,-772 1282.9404,-772 1282.9404,-784 1282.9404,-784 1282.9404,-790 1276.9404,-796 1270.9404,-796"/>
<text text-anchor="middle" x="1246.9678" y="-773.8" font-family="Times,serif" font-size="14.00" fill="#000000">Equatable</text>
</g>
<!-- Hashable&#45;&gt;Equatable -->
<g id="edge2" class="edge">
<title>Hashable&#45;&gt;Equatable</title>
<path fill="none" stroke="#000000" d="M761.1175,-799.4909C851.5488,-795.4908 1097.5075,-784.6112 1200.5629,-780.0527"/>
<polygon fill="#000000" stroke="#000000" points="1200.8274,-783.5445 1210.663,-779.6059 1200.518,-776.5513 1200.8274,-783.5445"/>
</g>
<!-- Comparable -->
<g id="node6" class="node">
<title>Comparable</title>
<path fill="none" stroke="#ff0000" stroke-dasharray="5,2" d="M1045.3995,-773C1045.3995,-773 984.5556,-773 984.5556,-773 978.5556,-773 972.5556,-767 972.5556,-761 972.5556,-761 972.5556,-749 972.5556,-749 972.5556,-743 978.5556,-737 984.5556,-737 984.5556,-737 1045.3995,-737 1045.3995,-737 1051.3995,-737 1057.3995,-743 1057.3995,-749 1057.3995,-749 1057.3995,-761 1057.3995,-761 1057.3995,-767 1051.3995,-773 1045.3995,-773"/>
<text text-anchor="middle" x="1014.9775" y="-750.8" font-family="Times,serif" font-size="14.00" fill="#000000">Comparable</text>
</g>
<!-- Comparable&#45;&gt;Equatable -->
<g id="edge3" class="edge">
<title>Comparable&#45;&gt;Equatable</title>
<path fill="none" stroke="#000000" d="M1057.2584,-759.1918C1097.74,-763.2052 1158.6743,-769.2464 1200.4981,-773.3929"/>
<polygon fill="#000000" stroke="#000000" points="1200.3989,-776.9001 1210.6954,-774.4039 1201.0895,-769.9343 1200.3989,-776.9001"/>
</g>
<!-- Numeric -->
<g id="node7" class="node">
<title>Numeric</title>
<path fill="none" stroke="#ff0000" stroke-dasharray="5,2" d="M1035.457,-1004C1035.457,-1004 994.498,-1004 994.498,-1004 988.498,-1004 982.498,-998 982.498,-992 982.498,-992 982.498,-980 982.498,-980 982.498,-974 988.498,-968 994.498,-968 994.498,-968 1035.457,-968 1035.457,-968 1041.457,-968 1047.457,-974 1047.457,-980 1047.457,-980 1047.457,-992 1047.457,-992 1047.457,-998 1041.457,-1004 1035.457,-1004"/>
<text text-anchor="middle" x="1014.9775" y="-981.8" font-family="Times,serif" font-size="14.00" fill="#000000">Numeric</text>
</g>
<!-- Numeric&#45;&gt;Equatable -->
<g id="edge14" class="edge">
<title>Numeric&#45;&gt;Equatable</title>
<path fill="none" stroke="#000000" d="M1035.1593,-967.9052C1076.6346,-930.7189 1171.5272,-845.6392 1218.9358,-803.1332"/>
<polygon fill="#000000" stroke="#000000" points="1221.5583,-805.4826 1226.6675,-796.2011 1216.8854,-800.2707 1221.5583,-805.4826"/>
</g>
<!-- ExpressibleByIntegerLiteral -->
<g id="node17" class="node">
<title>ExpressibleByIntegerLiteral</title>
<path fill="none" stroke="#ff0000" stroke-dasharray="5,2" d="M1322.0756,-1004C1322.0756,-1004 1171.8599,-1004 1171.8599,-1004 1165.8599,-1004 1159.8599,-998 1159.8599,-992 1159.8599,-992 1159.8599,-980 1159.8599,-980 1159.8599,-974 1165.8599,-968 1171.8599,-968 1171.8599,-968 1322.0756,-968 1322.0756,-968 1328.0756,-968 1334.0756,-974 1334.0756,-980 1334.0756,-980 1334.0756,-992 1334.0756,-992 1334.0756,-998 1328.0756,-1004 1322.0756,-1004"/>
<text text-anchor="middle" x="1246.9678" y="-981.8" font-family="Times,serif" font-size="14.00" fill="#000000">ExpressibleByIntegerLiteral</text>
</g>
<!-- Numeric&#45;&gt;ExpressibleByIntegerLiteral -->
<g id="edge15" class="edge">
<title>Numeric&#45;&gt;ExpressibleByIntegerLiteral</title>
<path fill="none" stroke="#000000" d="M1047.724,-986C1074.2675,-986 1113.1033,-986 1149.4538,-986"/>
<polygon fill="#000000" stroke="#000000" points="1149.6283,-989.5001 1159.6283,-986 1149.6282,-982.5001 1149.6283,-989.5001"/>
</g>
<!-- SignedNumeric -->
<g id="node8" class="node">
<title>SignedNumeric</title>
<path fill="none" stroke="#ff0000" stroke-dasharray="5,2" d="M766.8702,-1004C766.8702,-1004 687.1318,-1004 687.1318,-1004 681.1318,-1004 675.1318,-998 675.1318,-992 675.1318,-992 675.1318,-980 675.1318,-980 675.1318,-974 681.1318,-968 687.1318,-968 687.1318,-968 766.8702,-968 766.8702,-968 772.8702,-968 778.8702,-974 778.8702,-980 778.8702,-980 778.8702,-992 778.8702,-992 778.8702,-998 772.8702,-1004 766.8702,-1004"/>
<text text-anchor="middle" x="727.001" y="-981.8" font-family="Times,serif" font-size="14.00" fill="#000000">SignedNumeric</text>
</g>
<!-- SignedNumeric&#45;&gt;Numeric -->
<g id="edge13" class="edge">
<title>SignedNumeric&#45;&gt;Numeric</title>
<path fill="none" stroke="#000000" d="M779.1514,-986C834.4989,-986 920.9176,-986 972.3428,-986"/>
<polygon fill="#000000" stroke="#000000" points="972.4516,-989.5001 982.4515,-986 972.4515,-982.5001 972.4516,-989.5001"/>
</g>
<!-- Strideable -->
<g id="node9" class="node">
<title>Strideable</title>
<path fill="none" stroke="#ff0000" stroke-dasharray="5,2" d="M751.2602,-896C751.2602,-896 702.7418,-896 702.7418,-896 696.7418,-896 690.7418,-890 690.7418,-884 690.7418,-884 690.7418,-872 690.7418,-872 690.7418,-866 696.7418,-860 702.7418,-860 702.7418,-860 751.2602,-860 751.2602,-860 757.2602,-860 763.2602,-866 763.2602,-872 763.2602,-872 763.2602,-884 763.2602,-884 763.2602,-890 757.2602,-896 751.2602,-896"/>
<text text-anchor="middle" x="727.001" y="-873.8" font-family="Times,serif" font-size="14.00" fill="#000000">Strideable</text>
</g>
<!-- Strideable&#45;&gt;Comparable -->
<g id="edge4" class="edge">
<title>Strideable&#45;&gt;Comparable</title>
<path fill="none" stroke="#000000" d="M763.4214,-866.7576C792.6853,-857.3758 834.6399,-843.1362 870.291,-828 905.8115,-812.9192 944.8023,-793.0437 973.3488,-777.84"/>
<polygon fill="#000000" stroke="#000000" points="975.0712,-780.8879 982.2325,-773.0798 971.7651,-774.7178 975.0712,-780.8879"/>
</g>
<!-- BinaryInteger -->
<g id="node10" class="node">
<title>BinaryInteger</title>
<path fill="none" stroke="#ff0000" stroke-dasharray="5,2" d="M497.8597,-1015C497.8597,-1015 428.3688,-1015 428.3688,-1015 422.3688,-1015 416.3688,-1009 416.3688,-1003 416.3688,-1003 416.3688,-991 416.3688,-991 416.3688,-985 422.3688,-979 428.3688,-979 428.3688,-979 497.8597,-979 497.8597,-979 503.8597,-979 509.8597,-985 509.8597,-991 509.8597,-991 509.8597,-1003 509.8597,-1003 509.8597,-1009 503.8597,-1015 497.8597,-1015"/>
<text text-anchor="middle" x="463.1143" y="-992.8" font-family="Times,serif" font-size="14.00" fill="#000000">BinaryInteger</text>
</g>
<!-- BinaryInteger&#45;&gt;CustomStringConvertible -->
<g id="edge9" class="edge">
<title>BinaryInteger&#45;&gt;CustomStringConvertible</title>
<path fill="none" stroke="#000000" d="M509.9946,-980.7995C532.1687,-973.5057 559.1185,-965.1682 583.7109,-959 600.7472,-954.727 619.0743,-950.7869 636.7412,-947.3131"/>
<polygon fill="#000000" stroke="#000000" points="637.8968,-950.6547 647.0521,-945.3227 636.5699,-943.7816 637.8968,-950.6547"/>
</g>
<!-- BinaryInteger&#45;&gt;Hashable -->
<g id="edge10" class="edge">
<title>BinaryInteger&#45;&gt;Hashable</title>
<path fill="none" stroke="#000000" d="M510.1144,-983.9087C523.7572,-978.1578 537.6678,-970.106 547.7109,-959 581.6471,-921.4722 548.1848,-887.0263 583.7109,-851 610.0864,-824.2531 651.5261,-811.79 683.0706,-805.9966"/>
<polygon fill="#000000" stroke="#000000" points="683.6508,-809.4483 692.933,-804.3404 682.4914,-802.545 683.6508,-809.4483"/>
</g>
<!-- BinaryInteger&#45;&gt;Numeric -->
<g id="edge11" class="edge">
<title>BinaryInteger&#45;&gt;Numeric</title>
<path fill="none" stroke="#000000" d="M509.9335,-1004.673C532.2115,-1007.9489 559.2645,-1011.3854 583.7109,-1013 710.803,-1021.3941 743.4636,-1024.7324 870.291,-1013 904.9627,-1009.7926 943.7178,-1002.3498 972.3857,-996.0893"/>
<polygon fill="#000000" stroke="#000000" points="973.464,-999.435 982.4649,-993.8463 971.9434,-992.6022 973.464,-999.435"/>
</g>
<!-- BinaryInteger&#45;&gt;Strideable -->
<g id="edge12" class="edge">
<title>BinaryInteger&#45;&gt;Strideable</title>
<path fill="none" stroke="#000000" d="M510.1835,-981.4051C523.217,-975.6724 536.7741,-968.2586 547.7109,-959 569.7261,-940.3631 559.6554,-920.9163 583.7109,-905 612.2275,-886.1321 650.543,-879.6582 680.378,-877.752"/>
<polygon fill="#000000" stroke="#000000" points="680.73,-881.2391 690.5474,-877.2555 680.3886,-874.2474 680.73,-881.2391"/>
</g>
<!-- FixedWidthInteger -->
<g id="node11" class="node">
<title>FixedWidthInteger</title>
<path fill="none" stroke="#ff0000" stroke-dasharray="5,2" d="M292.8814,-1026C292.8814,-1026 194.9399,-1026 194.9399,-1026 188.9399,-1026 182.9399,-1020 182.9399,-1014 182.9399,-1014 182.9399,-1002 182.9399,-1002 182.9399,-996 188.9399,-990 194.9399,-990 194.9399,-990 292.8814,-990 292.8814,-990 298.8814,-990 304.8814,-996 304.8814,-1002 304.8814,-1002 304.8814,-1014 304.8814,-1014 304.8814,-1020 298.8814,-1026 292.8814,-1026"/>
<text text-anchor="middle" x="243.9106" y="-1003.8" font-family="Times,serif" font-size="14.00" fill="#000000">FixedWidthInteger</text>
</g>
<!-- FixedWidthInteger&#45;&gt;LosslessStringConvertible -->
<g id="edge5" class="edge">
<title>FixedWidthInteger&#45;&gt;LosslessStringConvertible</title>
<path fill="none" stroke="#000000" d="M300.6037,-989.9885C314.3541,-985.5135 328.9896,-980.6612 342.5176,-976 363.0702,-968.9184 385.4683,-960.8456 405.3219,-953.565"/>
<polygon fill="#000000" stroke="#000000" points="406.6676,-956.7994 414.8446,-950.0624 404.2511,-950.2297 406.6676,-956.7994"/>
</g>
<!-- FixedWidthInteger&#45;&gt;BinaryInteger -->
<g id="edge6" class="edge">
<title>FixedWidthInteger&#45;&gt;BinaryInteger</title>
<path fill="none" stroke="#000000" d="M304.9711,-1004.9359C336.6116,-1003.3481 375.0157,-1001.4209 406.0551,-999.8633"/>
<polygon fill="#000000" stroke="#000000" points="406.4667,-1003.3472 416.2787,-999.3503 406.1158,-996.356 406.4667,-1003.3472"/>
</g>
<!-- SignedInteger -->
<g id="node12" class="node">
<title>SignedInteger</title>
<path fill="none" stroke="#ff0000" stroke-dasharray="5,2" d="M278.9431,-1080C278.9431,-1080 208.8782,-1080 208.8782,-1080 202.8782,-1080 196.8782,-1074 196.8782,-1068 196.8782,-1068 196.8782,-1056 196.8782,-1056 196.8782,-1050 202.8782,-1044 208.8782,-1044 208.8782,-1044 278.9431,-1044 278.9431,-1044 284.9431,-1044 290.9431,-1050 290.9431,-1056 290.9431,-1056 290.9431,-1068 290.9431,-1068 290.9431,-1074 284.9431,-1080 278.9431,-1080"/>
<text text-anchor="middle" x="243.9106" y="-1057.8" font-family="Times,serif" font-size="14.00" fill="#000000">SignedInteger</text>
</g>
<!-- SignedInteger&#45;&gt;SignedNumeric -->
<g id="edge7" class="edge">
<title>SignedInteger&#45;&gt;SignedNumeric</title>
<path fill="none" stroke="#000000" d="M291.1901,-1057.3363C351.0955,-1051.1407 457.4214,-1039.1873 547.7109,-1024 586.9787,-1017.3949 630.7004,-1008.1665 665.1373,-1000.4581"/>
<polygon fill="#000000" stroke="#000000" points="666.065,-1003.8369 675.0507,-998.2238 664.5258,-997.0082 666.065,-1003.8369"/>
</g>
<!-- SignedInteger&#45;&gt;BinaryInteger -->
<g id="edge8" class="edge">
<title>SignedInteger&#45;&gt;BinaryInteger</title>
<path fill="none" stroke="#000000" d="M291.1612,-1049.4536C307.4697,-1045.0194 325.831,-1039.9116 342.5176,-1035 363.5102,-1028.821 386.4404,-1021.6921 406.6159,-1015.29"/>
<polygon fill="#000000" stroke="#000000" points="407.8119,-1018.5824 416.2783,-1012.213 405.6878,-1011.9125 407.8119,-1018.5824"/>
</g>
<!-- FloatingPoint -->
<g id="node13" class="node">
<title>FloatingPoint</title>
<path fill="none" stroke="#ff0000" stroke-dasharray="5,2" d="M497.3489,-896C497.3489,-896 428.8796,-896 428.8796,-896 422.8796,-896 416.8796,-890 416.8796,-884 416.8796,-884 416.8796,-872 416.8796,-872 416.8796,-866 422.8796,-860 428.8796,-860 428.8796,-860 497.3489,-860 497.3489,-860 503.3489,-860 509.3489,-866 509.3489,-872 509.3489,-872 509.3489,-884 509.3489,-884 509.3489,-890 503.3489,-896 497.3489,-896"/>
<text text-anchor="middle" x="463.1143" y="-873.8" font-family="Times,serif" font-size="14.00" fill="#000000">FloatingPoint</text>
</g>
<!-- FloatingPoint&#45;&gt;Hashable -->
<g id="edge18" class="edge">
<title>FloatingPoint&#45;&gt;Hashable</title>
<path fill="none" stroke="#000000" d="M509.3818,-864.4995C558.2337,-850.2449 634.6919,-827.9351 682.7624,-813.9085"/>
<polygon fill="#000000" stroke="#000000" points="683.9498,-817.208 692.569,-811.047 681.989,-810.4882 683.9498,-817.208"/>
</g>
<!-- FloatingPoint&#45;&gt;SignedNumeric -->
<g id="edge19" class="edge">
<title>FloatingPoint&#45;&gt;SignedNumeric</title>
<path fill="none" stroke="#000000" d="M509.2796,-886.6669C522.5795,-890.7033 536.5074,-896.5559 547.7109,-905 570.7454,-922.3612 559.6554,-943.0837 583.7109,-959 607.4856,-974.7304 638.0713,-981.8461 664.8751,-984.8822"/>
<polygon fill="#000000" stroke="#000000" points="664.6503,-988.3767 674.9407,-985.8555 665.3241,-981.4092 664.6503,-988.3767"/>
</g>
<!-- FloatingPoint&#45;&gt;Strideable -->
<g id="edge20" class="edge">
<title>FloatingPoint&#45;&gt;Strideable</title>
<path fill="none" stroke="#000000" d="M509.3818,-878C557.4429,-878 632.2239,-878 680.406,-878"/>
<polygon fill="#000000" stroke="#000000" points="680.5614,-881.5001 690.5614,-878 680.5614,-874.5001 680.5614,-881.5001"/>
</g>
<!-- BinaryFloatingPoint -->
<g id="node14" class="node">
<title>BinaryFloatingPoint</title>
<path fill="none" stroke="#ff0000" stroke-dasharray="5,2" d="M297.249,-842C297.249,-842 190.5723,-842 190.5723,-842 184.5723,-842 178.5723,-836 178.5723,-830 178.5723,-830 178.5723,-818 178.5723,-818 178.5723,-812 184.5723,-806 190.5723,-806 190.5723,-806 297.249,-806 297.249,-806 303.249,-806 309.249,-812 309.249,-818 309.249,-818 309.249,-830 309.249,-830 309.249,-836 303.249,-842 297.249,-842"/>
<text text-anchor="middle" x="243.9106" y="-819.8" font-family="Times,serif" font-size="14.00" fill="#000000">BinaryFloatingPoint</text>
</g>
<!-- BinaryFloatingPoint&#45;&gt;FloatingPoint -->
<g id="edge16" class="edge">
<title>BinaryFloatingPoint&#45;&gt;FloatingPoint</title>
<path fill="none" stroke="#000000" d="M309.0855,-840.0556C340.2661,-847.7368 377.2214,-856.8406 407.1173,-864.2054"/>
<polygon fill="#000000" stroke="#000000" points="406.4198,-867.6381 416.9668,-866.6317 408.0943,-860.8413 406.4198,-867.6381"/>
</g>
<!-- ExpressibleByFloatLiteral -->
<g id="node19" class="node">
<title>ExpressibleByFloatLiteral</title>
<path fill="none" stroke="#ff0000" stroke-dasharray="5,2" d="M532.8596,-842C532.8596,-842 393.3689,-842 393.3689,-842 387.3689,-842 381.3689,-836 381.3689,-830 381.3689,-830 381.3689,-818 381.3689,-818 381.3689,-812 387.3689,-806 393.3689,-806 393.3689,-806 532.8596,-806 532.8596,-806 538.8596,-806 544.8596,-812 544.8596,-818 544.8596,-818 544.8596,-830 544.8596,-830 544.8596,-836 538.8596,-842 532.8596,-842"/>
<text text-anchor="middle" x="463.1143" y="-819.8" font-family="Times,serif" font-size="14.00" fill="#000000">ExpressibleByFloatLiteral</text>
</g>
<!-- BinaryFloatingPoint&#45;&gt;ExpressibleByFloatLiteral -->
<g id="edge17" class="edge">
<title>BinaryFloatingPoint&#45;&gt;ExpressibleByFloatLiteral</title>
<path fill="none" stroke="#000000" d="M309.0855,-824C328.4988,-824 350.1507,-824 370.9435,-824"/>
<polygon fill="#000000" stroke="#000000" points="371.0684,-827.5001 381.0683,-824 371.0683,-820.5001 371.0684,-827.5001"/>
</g>
<!-- ExpressibleByArrayLiteral -->
<g id="node15" class="node">
<title>ExpressibleByArrayLiteral</title>
<path fill="none" stroke="#ff0000" stroke-dasharray="5,2" d="M315.5253,-366C315.5253,-366 172.2959,-366 172.2959,-366 166.2959,-366 160.2959,-360 160.2959,-354 160.2959,-354 160.2959,-342 160.2959,-342 160.2959,-336 166.2959,-330 172.2959,-330 172.2959,-330 315.5253,-330 315.5253,-330 321.5253,-330 327.5253,-336 327.5253,-342 327.5253,-342 327.5253,-354 327.5253,-354 327.5253,-360 321.5253,-366 315.5253,-366"/>
<text text-anchor="middle" x="243.9106" y="-343.8" font-family="Times,serif" font-size="14.00" fill="#000000">ExpressibleByArrayLiteral</text>
</g>
<!-- ExpressibleByDictionaryLiteral -->
<g id="node16" class="node">
<title>ExpressibleByDictionaryLiteral</title>
<path fill="none" stroke="#ff0000" stroke-dasharray="5,2" d="M329.2457,-128C329.2457,-128 158.5756,-128 158.5756,-128 152.5756,-128 146.5756,-122 146.5756,-116 146.5756,-116 146.5756,-104 146.5756,-104 146.5756,-98 152.5756,-92 158.5756,-92 158.5756,-92 329.2457,-92 329.2457,-92 335.2457,-92 341.2457,-98 341.2457,-104 341.2457,-104 341.2457,-116 341.2457,-116 341.2457,-122 335.2457,-128 329.2457,-128"/>
<text text-anchor="middle" x="243.9106" y="-105.8" font-family="Times,serif" font-size="14.00" fill="#000000">ExpressibleByDictionaryLiteral</text>
</g>
<!-- ExpressibleByBooleanLiteral -->
<g id="node18" class="node">
<title>ExpressibleByBooleanLiteral</title>
<path fill="none" stroke="#ff0000" stroke-dasharray="5,2" d="M322.5321,-934C322.5321,-934 165.2892,-934 165.2892,-934 159.2892,-934 153.2892,-928 153.2892,-922 153.2892,-922 153.2892,-910 153.2892,-910 153.2892,-904 159.2892,-898 165.2892,-898 165.2892,-898 322.5321,-898 322.5321,-898 328.5321,-898 334.5321,-904 334.5321,-910 334.5321,-910 334.5321,-922 334.5321,-922 334.5321,-928 328.5321,-934 322.5321,-934"/>
<text text-anchor="middle" x="243.9106" y="-911.8" font-family="Times,serif" font-size="14.00" fill="#000000">ExpressibleByBooleanLiteral</text>
</g>
<!-- ExpressibleByStringLiteral -->
<g id="node20" class="node">
<title>ExpressibleByStringLiteral</title>
<path fill="none" stroke="#ff0000" stroke-dasharray="5,2" d="M535.8077,-566C535.8077,-566 390.4208,-566 390.4208,-566 384.4208,-566 378.4208,-560 378.4208,-554 378.4208,-554 378.4208,-542 378.4208,-542 378.4208,-536 384.4208,-530 390.4208,-530 390.4208,-530 535.8077,-530 535.8077,-530 541.8077,-530 547.8077,-536 547.8077,-542 547.8077,-542 547.8077,-554 547.8077,-554 547.8077,-560 541.8077,-566 535.8077,-566"/>
<text text-anchor="middle" x="463.1143" y="-543.8" font-family="Times,serif" font-size="14.00" fill="#000000">ExpressibleByStringLiteral</text>
</g>
<!-- ExpressibleByExtendedGraphemeClusterLiteral -->
<g id="node21" class="node">
<title>ExpressibleByExtendedGraphemeClusterLiteral</title>
<path fill="none" stroke="#ff0000" stroke-dasharray="5,2" d="M858.0814,-566C858.0814,-566 595.9206,-566 595.9206,-566 589.9206,-566 583.9206,-560 583.9206,-554 583.9206,-554 583.9206,-542 583.9206,-542 583.9206,-536 589.9206,-530 595.9206,-530 595.9206,-530 858.0814,-530 858.0814,-530 864.0814,-530 870.0814,-536 870.0814,-542 870.0814,-542 870.0814,-554 870.0814,-554 870.0814,-560 864.0814,-566 858.0814,-566"/>
<text text-anchor="middle" x="727.001" y="-543.8" font-family="Times,serif" font-size="14.00" fill="#000000">ExpressibleByExtendedGraphemeClusterLiteral</text>
</g>
<!-- ExpressibleByStringLiteral&#45;&gt;ExpressibleByExtendedGraphemeClusterLiteral -->
<g id="edge21" class="edge">
<title>ExpressibleByStringLiteral&#45;&gt;ExpressibleByExtendedGraphemeClusterLiteral</title>
<path fill="none" stroke="#000000" d="M548.0622,-548C556.2925,-548 564.8034,-548 573.4414,-548"/>
<polygon fill="#000000" stroke="#000000" points="573.6308,-551.5001 583.6308,-548 573.6308,-544.5001 573.6308,-551.5001"/>
</g>
<!-- ExpressibleByUnicodeScalarLiteral -->
<g id="node22" class="node">
<title>ExpressibleByUnicodeScalarLiteral</title>
<path fill="none" stroke="#ff0000" stroke-dasharray="5,2" d="M1111.8509,-566C1111.8509,-566 918.1042,-566 918.1042,-566 912.1042,-566 906.1042,-560 906.1042,-554 906.1042,-554 906.1042,-542 906.1042,-542 906.1042,-536 912.1042,-530 918.1042,-530 918.1042,-530 1111.8509,-530 1111.8509,-530 1117.8509,-530 1123.8509,-536 1123.8509,-542 1123.8509,-542 1123.8509,-554 1123.8509,-554 1123.8509,-560 1117.8509,-566 1111.8509,-566"/>
<text text-anchor="middle" x="1014.9775" y="-543.8" font-family="Times,serif" font-size="14.00" fill="#000000">ExpressibleByUnicodeScalarLiteral</text>
</g>
<!-- ExpressibleByExtendedGraphemeClusterLiteral&#45;&gt;ExpressibleByUnicodeScalarLiteral -->
<g id="edge22" class="edge">
<title>ExpressibleByExtendedGraphemeClusterLiteral&#45;&gt;ExpressibleByUnicodeScalarLiteral</title>
<path fill="none" stroke="#000000" d="M870.1456,-548C878.8711,-548 887.6007,-548 896.2063,-548"/>
<polygon fill="#000000" stroke="#000000" points="896.2439,-551.5001 906.2438,-548 896.2438,-544.5001 896.2439,-551.5001"/>
</g>
<!-- RangeExpression -->
<g id="node23" class="node">
<title>RangeExpression</title>
<path fill="none" stroke="#ff0000" stroke-dasharray="5,2" d="M288.8901,-685C288.8901,-685 198.9312,-685 198.9312,-685 192.9312,-685 186.9312,-679 186.9312,-673 186.9312,-673 186.9312,-661 186.9312,-661 186.9312,-655 192.9312,-649 198.9312,-649 198.9312,-649 288.8901,-649 288.8901,-649 294.8901,-649 300.8901,-655 300.8901,-661 300.8901,-661 300.8901,-673 300.8901,-673 300.8901,-679 294.8901,-685 288.8901,-685"/>
<text text-anchor="middle" x="243.9106" y="-662.8" font-family="Times,serif" font-size="14.00" fill="#000000">RangeExpression</text>
</g>
<!-- Collection -->
<g id="node24" class="node">
<title>Collection</title>
<path fill="none" stroke="#ff0000" stroke-dasharray="5,2" d="M752.3259,-320C752.3259,-320 701.676,-320 701.676,-320 695.676,-320 689.676,-314 689.676,-308 689.676,-308 689.676,-296 689.676,-296 689.676,-290 695.676,-284 701.676,-284 701.676,-284 752.3259,-284 752.3259,-284 758.3259,-284 764.3259,-290 764.3259,-296 764.3259,-296 764.3259,-308 764.3259,-308 764.3259,-314 758.3259,-320 752.3259,-320"/>
<text text-anchor="middle" x="727.001" y="-297.8" font-family="Times,serif" font-size="14.00" fill="#000000">Collection</text>
</g>
<!-- Sequence -->
<g id="node25" class="node">
<title>Sequence</title>
<path fill="none" stroke="#ff0000" stroke-dasharray="5,2" d="M1037.6201,-201C1037.6201,-201 992.335,-201 992.335,-201 986.335,-201 980.335,-195 980.335,-189 980.335,-189 980.335,-177 980.335,-177 980.335,-171 986.335,-165 992.335,-165 992.335,-165 1037.6201,-165 1037.6201,-165 1043.6201,-165 1049.6201,-171 1049.6201,-177 1049.6201,-177 1049.6201,-189 1049.6201,-189 1049.6201,-195 1043.6201,-201 1037.6201,-201"/>
<text text-anchor="middle" x="1014.9775" y="-178.8" font-family="Times,serif" font-size="14.00" fill="#000000">Sequence</text>
</g>
<!-- Collection&#45;&gt;Sequence -->
<g id="edge26" class="edge">
<title>Collection&#45;&gt;Sequence</title>
<path fill="none" stroke="#000000" d="M764.3537,-286.5648C817.2955,-264.6878 913.9942,-224.7292 970.5489,-201.3592"/>
<polygon fill="#000000" stroke="#000000" points="972.0396,-204.5303 979.9449,-197.4765 969.3662,-198.0609 972.0396,-204.5303"/>
</g>
<!-- BidirectionalCollection -->
<g id="node26" class="node">
<title>BidirectionalCollection</title>
<path fill="none" stroke="#ff0000" stroke-dasharray="5,2" d="M525.0289,-474C525.0289,-474 401.1996,-474 401.1996,-474 395.1996,-474 389.1996,-468 389.1996,-462 389.1996,-462 389.1996,-450 389.1996,-450 389.1996,-444 395.1996,-438 401.1996,-438 401.1996,-438 525.0289,-438 525.0289,-438 531.0289,-438 537.0289,-444 537.0289,-450 537.0289,-450 537.0289,-462 537.0289,-462 537.0289,-468 531.0289,-474 525.0289,-474"/>
<text text-anchor="middle" x="463.1143" y="-451.8" font-family="Times,serif" font-size="14.00" fill="#000000">BidirectionalCollection</text>
</g>
<!-- BidirectionalCollection&#45;&gt;Collection -->
<g id="edge23" class="edge">
<title>BidirectionalCollection&#45;&gt;Collection</title>
<path fill="none" stroke="#000000" d="M494.1614,-437.8814C542.2008,-409.8464 634.5027,-355.9805 687.3184,-325.1581"/>
<polygon fill="#000000" stroke="#000000" points="689.1993,-328.1129 696.072,-320.0496 685.6711,-322.0671 689.1993,-328.1129"/>
</g>
<!-- RandomAccessCollection -->
<g id="node27" class="node">
<title>RandomAccessCollection</title>
<path fill="none" stroke="#ff0000" stroke-dasharray="5,2" d="M312.8252,-474C312.8252,-474 174.996,-474 174.996,-474 168.996,-474 162.996,-468 162.996,-462 162.996,-462 162.996,-450 162.996,-450 162.996,-444 168.996,-438 174.996,-438 174.996,-438 312.8252,-438 312.8252,-438 318.8252,-438 324.8252,-444 324.8252,-450 324.8252,-450 324.8252,-462 324.8252,-462 324.8252,-468 318.8252,-474 312.8252,-474"/>
<text text-anchor="middle" x="243.9106" y="-451.8" font-family="Times,serif" font-size="14.00" fill="#000000">RandomAccessCollection</text>
</g>
<!-- RandomAccessCollection&#45;&gt;BidirectionalCollection -->
<g id="edge27" class="edge">
<title>RandomAccessCollection&#45;&gt;BidirectionalCollection</title>
<path fill="none" stroke="#000000" d="M324.9112,-456C342.5485,-456 361.2483,-456 379.0033,-456"/>
<polygon fill="#000000" stroke="#000000" points="379.3328,-459.5001 389.3328,-456 379.3327,-452.5001 379.3328,-459.5001"/>
</g>
<!-- MutableCollection -->
<g id="node28" class="node">
<title>MutableCollection</title>
<path fill="none" stroke="#ff0000" stroke-dasharray="5,2" d="M511.5938,-320C511.5938,-320 414.6348,-320 414.6348,-320 408.6348,-320 402.6348,-314 402.6348,-308 402.6348,-308 402.6348,-296 402.6348,-296 402.6348,-290 408.6348,-284 414.6348,-284 414.6348,-284 511.5938,-284 511.5938,-284 517.5938,-284 523.5938,-290 523.5938,-296 523.5938,-296 523.5938,-308 523.5938,-308 523.5938,-314 517.5938,-320 511.5938,-320"/>
<text text-anchor="middle" x="463.1143" y="-297.8" font-family="Times,serif" font-size="14.00" fill="#000000">MutableCollection</text>
</g>
<!-- MutableCollection&#45;&gt;Collection -->
<g id="edge24" class="edge">
<title>MutableCollection&#45;&gt;Collection</title>
<path fill="none" stroke="#000000" d="M523.6552,-302C570.988,-302 635.8641,-302 679.496,-302"/>
<polygon fill="#000000" stroke="#000000" points="679.5601,-305.5001 689.5601,-302 679.5601,-298.5001 679.5601,-305.5001"/>
</g>
<!-- RangeReplaceableCollection -->
<g id="node29" class="node">
<title>RangeReplaceableCollection</title>
<path fill="none" stroke="#ff0000" stroke-dasharray="5,2" d="M321.4016,-420C321.4016,-420 166.4197,-420 166.4197,-420 160.4197,-420 154.4197,-414 154.4197,-408 154.4197,-408 154.4197,-396 154.4197,-396 154.4197,-390 160.4197,-384 166.4197,-384 166.4197,-384 321.4016,-384 321.4016,-384 327.4016,-384 333.4016,-390 333.4016,-396 333.4016,-396 333.4016,-408 333.4016,-408 333.4016,-414 327.4016,-420 321.4016,-420"/>
<text text-anchor="middle" x="243.9106" y="-397.8" font-family="Times,serif" font-size="14.00" fill="#000000">RangeReplaceableCollection</text>
</g>
<!-- RangeReplaceableCollection&#45;&gt;Collection -->
<g id="edge25" class="edge">
<title>RangeReplaceableCollection&#45;&gt;Collection</title>
<path fill="none" stroke="#000000" d="M331.1149,-383.9487C433.4118,-362.7732 599.2598,-328.4425 679.9313,-311.7434"/>
<polygon fill="#000000" stroke="#000000" points="680.7203,-315.1544 689.8032,-309.7 679.3013,-308.2997 680.7203,-315.1544"/>
</g>
<!-- IteratorProtocol -->
<g id="node30" class="node">
<title>IteratorProtocol</title>
<path fill="none" stroke="#ff0000" stroke-dasharray="5,2" d="M284.046,-36C284.046,-36 203.7752,-36 203.7752,-36 197.7752,-36 191.7752,-30 191.7752,-24 191.7752,-24 191.7752,-12 191.7752,-12 191.7752,-6 197.7752,0 203.7752,0 203.7752,0 284.046,0 284.046,0 290.046,0 296.046,-6 296.046,-12 296.046,-12 296.046,-24 296.046,-24 296.046,-30 290.046,-36 284.046,-36"/>
<text text-anchor="middle" x="243.9106" y="-13.8" font-family="Times,serif" font-size="14.00" fill="#000000">IteratorProtocol</text>
</g>
<!-- StringProtocol -->
<g id="node31" class="node">
<title>StringProtocol</title>
<path fill="none" stroke="#ff0000" stroke-dasharray="5,2" d="M280.5801,-631C280.5801,-631 207.2411,-631 207.2411,-631 201.2411,-631 195.2411,-625 195.2411,-619 195.2411,-619 195.2411,-607 195.2411,-607 195.2411,-601 201.2411,-595 207.2411,-595 207.2411,-595 280.5801,-595 280.5801,-595 286.5801,-595 292.5801,-601 292.5801,-607 292.5801,-607 292.5801,-619 292.5801,-619 292.5801,-625 286.5801,-631 280.5801,-631"/>
<text text-anchor="middle" x="243.9106" y="-608.8" font-family="Times,serif" font-size="14.00" fill="#000000">StringProtocol</text>
</g>
<!-- StringProtocol&#45;&gt;LosslessStringConvertible -->
<g id="edge28" class="edge">
<title>StringProtocol&#45;&gt;LosslessStringConvertible</title>
<path fill="none" stroke="#000000" d="M292.7774,-615.3202C310.9057,-618.7181 330.0634,-625.7795 342.5176,-640 420.8272,-729.4159 302.0882,-813.9717 378.5176,-905 379.1248,-905.7232 379.7513,-906.4272 380.396,-907.1126"/>
<polygon fill="#000000" stroke="#000000" points="378.123,-909.7746 387.9375,-913.7653 382.7537,-904.5252 378.123,-909.7746"/>
</g>
<!-- StringProtocol&#45;&gt;Hashable -->
<g id="edge29" class="edge">
<title>StringProtocol&#45;&gt;Hashable</title>
<path fill="none" stroke="#000000" d="M292.7167,-617.8717C309.9924,-621.6523 328.5774,-628.3097 342.5176,-640 371.1559,-664.0163 349.5456,-692.3873 378.5176,-716 390.4429,-725.7193 591.6487,-771.0912 682.7765,-791.2751"/>
<polygon fill="#000000" stroke="#000000" points="682.2851,-794.7509 692.805,-793.493 683.7968,-787.9161 682.2851,-794.7509"/>
</g>
<!-- StringProtocol&#45;&gt;Comparable -->
<g id="edge30" class="edge">
<title>StringProtocol&#45;&gt;Comparable</title>
<path fill="none" stroke="#000000" d="M292.744,-620.2406C309.4484,-624.2595 327.654,-630.462 342.5176,-640 363.4946,-653.461 356.5636,-671.1993 378.5176,-683 429.521,-710.4153 818.855,-740.8819 962.2088,-751.2861"/>
<polygon fill="#000000" stroke="#000000" points="962.2737,-754.7999 972.4998,-752.0292 962.7778,-747.818 962.2737,-754.7999"/>
</g>
<!-- StringProtocol&#45;&gt;ExpressibleByStringLiteral -->
<g id="edge31" class="edge">
<title>StringProtocol&#45;&gt;ExpressibleByStringLiteral</title>
<path fill="none" stroke="#000000" d="M292.8314,-598.4936C322.1052,-589.8131 359.8125,-578.6319 392.2998,-568.9985"/>
<polygon fill="#000000" stroke="#000000" points="393.6071,-572.2615 402.1994,-566.063 391.617,-565.5504 393.6071,-572.2615"/>
</g>
<!-- StringProtocol&#45;&gt;BidirectionalCollection -->
<g id="edge32" class="edge">
<title>StringProtocol&#45;&gt;BidirectionalCollection</title>
<path fill="none" stroke="#000000" d="M269.0561,-594.9901C308.5916,-566.6737 385.3283,-511.7126 429.5378,-480.0484"/>
<polygon fill="#000000" stroke="#000000" points="431.8335,-482.7093 437.9254,-474.041 427.7575,-477.0184 431.8335,-482.7093"/>
</g>
<!-- TextOutputStream -->
<g id="node34" class="node">
<title>TextOutputStream</title>
<path fill="none" stroke="#ff0000" stroke-dasharray="5,2" d="M510.8371,-674C510.8371,-674 415.3914,-674 415.3914,-674 409.3914,-674 403.3914,-668 403.3914,-662 403.3914,-662 403.3914,-650 403.3914,-650 403.3914,-644 409.3914,-638 415.3914,-638 415.3914,-638 510.8371,-638 510.8371,-638 516.8371,-638 522.8371,-644 522.8371,-650 522.8371,-650 522.8371,-662 522.8371,-662 522.8371,-668 516.8371,-674 510.8371,-674"/>
<text text-anchor="middle" x="463.1143" y="-651.8" font-family="Times,serif" font-size="14.00" fill="#000000">TextOutputStream</text>
</g>
<!-- StringProtocol&#45;&gt;TextOutputStream -->
<g id="edge33" class="edge">
<title>StringProtocol&#45;&gt;TextOutputStream</title>
<path fill="none" stroke="#000000" d="M292.8314,-622.5965C322.4483,-628.4063 360.6974,-635.9094 393.4398,-642.3323"/>
<polygon fill="#000000" stroke="#000000" points="392.922,-645.7974 403.4088,-644.2879 394.2696,-638.9283 392.922,-645.7974"/>
</g>
<!-- TextOutputStreamable -->
<g id="node35" class="node">
<title>TextOutputStreamable</title>
<path fill="none" stroke="#ff0000" stroke-dasharray="5,2" d="M522.155,-620C522.155,-620 404.0735,-620 404.0735,-620 398.0735,-620 392.0735,-614 392.0735,-608 392.0735,-608 392.0735,-596 392.0735,-596 392.0735,-590 398.0735,-584 404.0735,-584 404.0735,-584 522.155,-584 522.155,-584 528.155,-584 534.155,-590 534.155,-596 534.155,-596 534.155,-608 534.155,-608 534.155,-614 528.155,-620 522.155,-620"/>
<text text-anchor="middle" x="463.1143" y="-597.8" font-family="Times,serif" font-size="14.00" fill="#000000">TextOutputStreamable</text>
</g>
<!-- StringProtocol&#45;&gt;TextOutputStreamable -->
<g id="edge34" class="edge">
<title>StringProtocol&#45;&gt;TextOutputStreamable</title>
<path fill="none" stroke="#000000" d="M292.8314,-610.5451C319.0187,-609.231 351.9549,-607.5782 381.8658,-606.0772"/>
<polygon fill="#000000" stroke="#000000" points="382.0675,-609.5716 391.8795,-605.5747 381.7166,-602.5804 382.0675,-609.5716"/>
</g>
<!-- Encodable -->
<g id="node32" class="node">
<title>Encodable</title>
<path fill="none" stroke="#ff0000" stroke-dasharray="5,2" d="M269.4937,-274C269.4937,-274 218.3276,-274 218.3276,-274 212.3276,-274 206.3276,-268 206.3276,-262 206.3276,-262 206.3276,-250 206.3276,-250 206.3276,-244 212.3276,-238 218.3276,-238 218.3276,-238 269.4937,-238 269.4937,-238 275.4937,-238 281.4937,-244 281.4937,-250 281.4937,-250 281.4937,-262 281.4937,-262 281.4937,-268 275.4937,-274 269.4937,-274"/>
<text text-anchor="middle" x="243.9106" y="-251.8" font-family="Times,serif" font-size="14.00" fill="#000000">Encodable</text>
</g>
<!-- Decodable -->
<g id="node33" class="node">
<title>Decodable</title>
<path fill="none" stroke="#ff0000" stroke-dasharray="5,2" d="M269.7663,-220C269.7663,-220 218.055,-220 218.055,-220 212.055,-220 206.055,-214 206.055,-208 206.055,-208 206.055,-196 206.055,-196 206.055,-190 212.055,-184 218.055,-184 218.055,-184 269.7663,-184 269.7663,-184 275.7663,-184 281.7663,-190 281.7663,-196 281.7663,-196 281.7663,-208 281.7663,-208 281.7663,-214 275.7663,-220 269.7663,-220"/>
<text text-anchor="middle" x="243.9106" y="-197.8" font-family="Times,serif" font-size="14.00" fill="#000000">Decodable</text>
</g>
<!-- Int -->
<g id="node36" class="node">
<title>Int</title>
<path fill="none" stroke="#0000ff" stroke-width="3" d="M69.6519,-1053C69.6519,-1053 39.6519,-1053 39.6519,-1053 33.6519,-1053 27.6519,-1047 27.6519,-1041 27.6519,-1041 27.6519,-1029 27.6519,-1029 27.6519,-1023 33.6519,-1017 39.6519,-1017 39.6519,-1017 69.6519,-1017 69.6519,-1017 75.6519,-1017 81.6519,-1023 81.6519,-1029 81.6519,-1029 81.6519,-1041 81.6519,-1041 81.6519,-1047 75.6519,-1053 69.6519,-1053"/>
<text text-anchor="middle" x="54.6519" y="-1030.8" font-family="Times,serif" font-size="14.00" fill="#000000">Int</text>
</g>
<!-- Int&#45;&gt;FixedWidthInteger -->
<g id="edge35" class="edge">
<title>Int&#45;&gt;FixedWidthInteger</title>
<path fill="none" stroke="#000000" d="M81.768,-1031.1316C105.4709,-1027.7501 140.9655,-1022.6863 172.7075,-1018.158"/>
<polygon fill="#000000" stroke="#000000" points="173.4564,-1021.5867 182.8618,-1016.7093 172.4677,-1014.6568 173.4564,-1021.5867"/>
</g>
<!-- Int&#45;&gt;SignedInteger -->
<g id="edge36" class="edge">
<title>Int&#45;&gt;SignedInteger</title>
<path fill="none" stroke="#000000" d="M81.768,-1038.8684C109.0251,-1042.757 151.8754,-1048.8701 186.681,-1053.8355"/>
<polygon fill="#000000" stroke="#000000" points="186.3362,-1057.3217 196.7303,-1055.2692 187.3249,-1050.3919 186.3362,-1057.3217"/>
</g>
<!-- Float -->
<g id="node37" class="node">
<title>Float</title>
<path fill="none" stroke="#0000ff" stroke-width="3" d="M69.6519,-842C69.6519,-842 39.6519,-842 39.6519,-842 33.6519,-842 27.6519,-836 27.6519,-830 27.6519,-830 27.6519,-818 27.6519,-818 27.6519,-812 33.6519,-806 39.6519,-806 39.6519,-806 69.6519,-806 69.6519,-806 75.6519,-806 81.6519,-812 81.6519,-818 81.6519,-818 81.6519,-830 81.6519,-830 81.6519,-836 75.6519,-842 69.6519,-842"/>
<text text-anchor="middle" x="54.6519" y="-819.8" font-family="Times,serif" font-size="14.00" fill="#000000">Float</text>
</g>
<!-- Float&#45;&gt;LosslessStringConvertible -->
<g id="edge37" class="edge">
<title>Float&#45;&gt;LosslessStringConvertible</title>
<path fill="none" stroke="#000000" d="M81.831,-832.8632C99.7379,-838.5119 123.7698,-845.7322 145.3037,-851 232.01,-872.2106 257.3554,-862.2556 342.5176,-889 359.2223,-894.246 362.1531,-898.7733 378.5176,-905 383.5607,-906.9189 388.8062,-908.8178 394.1043,-910.6663"/>
<polygon fill="#000000" stroke="#000000" points="393.0711,-914.0119 403.6656,-913.9326 395.334,-907.3877 393.0711,-914.0119"/>
</g>
<!-- Float&#45;&gt;CustomDebugStringConvertible -->
<g id="edge38" class="edge">
<title>Float&#45;&gt;CustomDebugStringConvertible</title>
<path fill="none" stroke="#000000" d="M79.3235,-805.9798C97.1547,-793.3811 122.0898,-776.6199 145.3037,-764 159.0328,-756.5364 174.3212,-749.3581 188.683,-743.0759"/>
<polygon fill="#000000" stroke="#000000" points="190.1592,-746.251 197.9612,-739.083 187.3921,-739.8211 190.1592,-746.251"/>
</g>
<!-- Float&#45;&gt;BinaryFloatingPoint -->
<g id="edge39" class="edge">
<title>Float&#45;&gt;BinaryFloatingPoint</title>
<path fill="none" stroke="#000000" d="M81.768,-824C104.3581,-824 137.6589,-824 168.2139,-824"/>
<polygon fill="#000000" stroke="#000000" points="168.4514,-827.5001 178.4513,-824 168.4513,-820.5001 168.4514,-827.5001"/>
</g>
<!-- Bool -->
<g id="node38" class="node">
<title>Bool</title>
<path fill="none" stroke="#0000ff" stroke-width="3" d="M69.6519,-934C69.6519,-934 39.6519,-934 39.6519,-934 33.6519,-934 27.6519,-928 27.6519,-922 27.6519,-922 27.6519,-910 27.6519,-910 27.6519,-904 33.6519,-898 39.6519,-898 39.6519,-898 69.6519,-898 69.6519,-898 75.6519,-898 81.6519,-904 81.6519,-910 81.6519,-910 81.6519,-922 81.6519,-922 81.6519,-928 75.6519,-934 69.6519,-934"/>
<text text-anchor="middle" x="54.6519" y="-911.8" font-family="Times,serif" font-size="14.00" fill="#000000">Bool</text>
</g>
<!-- Bool&#45;&gt;LosslessStringConvertible -->
<g id="edge40" class="edge">
<title>Bool&#45;&gt;LosslessStringConvertible</title>
<path fill="none" stroke="#000000" d="M81.9573,-926.389C99.7124,-932.5773 123.5291,-939.8262 145.3037,-943 220.7556,-953.9977 307.2964,-949.9273 371.0004,-943.8462"/>
<polygon fill="#000000" stroke="#000000" points="371.4163,-947.3223 381.0233,-942.855 370.7273,-940.3563 371.4163,-947.3223"/>
</g>
<!-- Bool&#45;&gt;Hashable -->
<g id="edge41" class="edge">
<title>Bool&#45;&gt;Hashable</title>
<path fill="none" stroke="#000000" d="M70.7582,-897.9521C81.9512,-885.1481 97.0066,-867.394 109.3037,-851 126.6118,-827.9256 119.8723,-810.6105 145.3037,-797 237.787,-747.5044 563.1962,-780.9687 682.6219,-795.348"/>
<polygon fill="#000000" stroke="#000000" points="682.5103,-798.8602 692.8601,-796.595 683.3567,-791.9115 682.5103,-798.8602"/>
</g>
<!-- Bool&#45;&gt;ExpressibleByBooleanLiteral -->
<g id="edge42" class="edge">
<title>Bool&#45;&gt;ExpressibleByBooleanLiteral</title>
<path fill="none" stroke="#000000" d="M81.768,-916C98.2395,-916 120.4053,-916 143.049,-916"/>
<polygon fill="#000000" stroke="#000000" points="143.1162,-919.5001 153.1161,-916 143.1161,-912.5001 143.1162,-919.5001"/>
</g>
<!-- String -->
<g id="node39" class="node">
<title>String</title>
<path fill="none" stroke="#0000ff" stroke-width="3" d="M69.6519,-631C69.6519,-631 39.6519,-631 39.6519,-631 33.6519,-631 27.6519,-625 27.6519,-619 27.6519,-619 27.6519,-607 27.6519,-607 27.6519,-601 33.6519,-595 39.6519,-595 39.6519,-595 69.6519,-595 69.6519,-595 75.6519,-595 81.6519,-601 81.6519,-607 81.6519,-607 81.6519,-619 81.6519,-619 81.6519,-625 75.6519,-631 69.6519,-631"/>
<text text-anchor="middle" x="54.6519" y="-608.8" font-family="Times,serif" font-size="14.00" fill="#000000">String</text>
</g>
<!-- String&#45;&gt;CustomDebugStringConvertible -->
<g id="edge43" class="edge">
<title>String&#45;&gt;CustomDebugStringConvertible</title>
<path fill="none" stroke="#000000" d="M81.6644,-622.9496C91.073,-627.2546 101.2737,-632.9453 109.3037,-640 130.9733,-659.0375 121.9124,-677.1225 145.3037,-694 147.1749,-695.3501 149.1103,-696.6327 151.0987,-697.8512"/>
<polygon fill="#000000" stroke="#000000" points="149.6684,-701.0585 160.1202,-702.7935 153.0316,-694.9193 149.6684,-701.0585"/>
</g>
<!-- String&#45;&gt;RangeReplaceableCollection -->
<g id="edge44" class="edge">
<title>String&#45;&gt;RangeReplaceableCollection</title>
<path fill="none" stroke="#000000" d="M58.3866,-594.7385C66.935,-557.687 91.4792,-473.4365 145.3037,-429 146.8436,-427.7287 148.4385,-426.5171 150.0807,-425.3622"/>
<polygon fill="#000000" stroke="#000000" points="151.9956,-428.2931 158.6495,-420.0484 148.3064,-422.3441 151.9956,-428.2931"/>
</g>
<!-- String&#45;&gt;StringProtocol -->
<g id="edge45" class="edge">
<title>String&#45;&gt;StringProtocol</title>
<path fill="none" stroke="#000000" d="M81.768,-613C108.5376,-613 150.3476,-613 184.8059,-613"/>
<polygon fill="#000000" stroke="#000000" points="185.2391,-616.5001 195.239,-613 185.239,-609.5001 185.2391,-616.5001"/>
</g>
<!-- Array -->
<g id="node40" class="node">
<title>Array</title>
<path fill="none" stroke="#0000ff" stroke-width="3" d="M69.6519,-343C69.6519,-343 39.6519,-343 39.6519,-343 33.6519,-343 27.6519,-337 27.6519,-331 27.6519,-331 27.6519,-319 27.6519,-319 27.6519,-313 33.6519,-307 39.6519,-307 39.6519,-307 69.6519,-307 69.6519,-307 75.6519,-307 81.6519,-313 81.6519,-319 81.6519,-319 81.6519,-331 81.6519,-331 81.6519,-337 75.6519,-343 69.6519,-343"/>
<text text-anchor="middle" x="54.6519" y="-320.8" font-family="Times,serif" font-size="14.00" fill="#000000">Array</text>
</g>
<!-- Array&#45;&gt;ExpressibleByArrayLiteral -->
<g id="edge49" class="edge">
<title>Array&#45;&gt;ExpressibleByArrayLiteral</title>
<path fill="none" stroke="#000000" d="M81.768,-328.2953C99.995,-330.5104 125.1949,-333.5729 150.2992,-336.6237"/>
<polygon fill="#000000" stroke="#000000" points="149.9256,-340.104 160.2749,-337.836 150.7702,-333.1551 149.9256,-340.104"/>
</g>
<!-- Array&#45;&gt;RandomAccessCollection -->
<g id="edge50" class="edge">
<title>Array&#45;&gt;RandomAccessCollection</title>
<path fill="none" stroke="#000000" d="M65.7314,-343.3553C80.8121,-366.7597 110.0058,-406.8422 145.3037,-429 148.0848,-430.7458 150.9789,-432.3803 153.9552,-433.9104"/>
<polygon fill="#000000" stroke="#000000" points="152.5591,-437.1214 163.0995,-438.1947 155.529,-430.7826 152.5591,-437.1214"/>
</g>
<!-- Array&#45;&gt;MutableCollection -->
<g id="edge51" class="edge">
<title>Array&#45;&gt;MutableCollection</title>
<path fill="none" stroke="#000000" d="M81.7685,-323.4731C144.3686,-319.9482 300.617,-311.15 392.5168,-305.9753"/>
<polygon fill="#000000" stroke="#000000" points="392.7851,-309.4658 402.5725,-305.409 392.3915,-302.4769 392.7851,-309.4658"/>
</g>
<!-- Array&#45;&gt;RangeReplaceableCollection -->
<g id="edge52" class="edge">
<title>Array&#45;&gt;RangeReplaceableCollection</title>
<path fill="none" stroke="#000000" d="M81.9841,-342.3085C99.5519,-352.8636 123.1548,-366.008 145.3037,-375 150.2888,-377.0239 155.4759,-378.947 160.7472,-380.7649"/>
<polygon fill="#000000" stroke="#000000" points="159.708,-384.1075 170.3012,-383.9224 161.9046,-377.4611 159.708,-384.1075"/>
</g>
<!-- Array&#45;&gt;Encodable -->
<g id="edge53" class="edge">
<title>Array&#45;&gt;Encodable</title>
<path fill="none" stroke="#000000" d="M81.8192,-313.2994C99.7212,-305.7413 123.752,-295.883 145.3037,-288 161.821,-281.9584 180.0961,-275.8666 196.3804,-270.6431"/>
<polygon fill="#000000" stroke="#000000" points="197.7599,-273.8772 206.2289,-267.5112 195.6385,-267.2064 197.7599,-273.8772"/>
</g>
<!-- Array&#45;&gt;Decodable -->
<g id="edge54" class="edge">
<title>Array&#45;&gt;Decodable</title>
<path fill="none" stroke="#000000" d="M66.8817,-306.9503C82.5389,-285.2312 111.696,-249.1753 145.3037,-229 160.5525,-219.8459 178.9714,-213.7213 195.7424,-209.6572"/>
<polygon fill="#000000" stroke="#000000" points="196.9311,-212.9781 205.9288,-207.3842 195.4066,-206.1461 196.9311,-212.9781"/>
</g>
<!-- Dictionary -->
<g id="node41" class="node">
<title>Dictionary</title>
<path fill="none" stroke="#0000ff" stroke-width="3" d="M80.5211,-197C80.5211,-197 28.7826,-197 28.7826,-197 22.7826,-197 16.7826,-191 16.7826,-185 16.7826,-185 16.7826,-173 16.7826,-173 16.7826,-167 22.7826,-161 28.7826,-161 28.7826,-161 80.5211,-161 80.5211,-161 86.5211,-161 92.5211,-167 92.5211,-173 92.5211,-173 92.5211,-185 92.5211,-185 92.5211,-191 86.5211,-197 80.5211,-197"/>
<text text-anchor="middle" x="54.6519" y="-174.8" font-family="Times,serif" font-size="14.00" fill="#000000">Dictionary</text>
</g>
<!-- Dictionary&#45;&gt;ExpressibleByDictionaryLiteral -->
<g id="edge55" class="edge">
<title>Dictionary&#45;&gt;ExpressibleByDictionaryLiteral</title>
<path fill="none" stroke="#000000" d="M92.783,-162.7071C108.8855,-156.0173 127.9027,-148.3648 145.3037,-142 155.2685,-138.3551 165.8731,-134.692 176.2943,-131.2123"/>
<polygon fill="#000000" stroke="#000000" points="177.3932,-134.5354 185.7897,-128.074 175.1964,-127.889 177.3932,-134.5354"/>
</g>
<!-- Dictionary&#45;&gt;Collection -->
<g id="edge56" class="edge">
<title>Dictionary&#45;&gt;Collection</title>
<path fill="none" stroke="#000000" d="M92.6767,-174.3242C148.0516,-168.4496 253.9398,-160.7494 342.5176,-175 468.4639,-195.2625 609.046,-250.6119 680.2313,-281.1246"/>
<polygon fill="#000000" stroke="#000000" points="679.2383,-284.5081 689.8065,-285.2589 682.0132,-278.0816 679.2383,-284.5081"/>
</g>
<!-- Dictionary&#45;&gt;Encodable -->
<g id="edge57" class="edge">
<title>Dictionary&#45;&gt;Encodable</title>
<path fill="none" stroke="#000000" d="M83.182,-197.0266C100.616,-207.4545 123.6544,-220.2108 145.3037,-229 161.5105,-235.5797 179.8519,-241.0947 196.2828,-245.3897"/>
<polygon fill="#000000" stroke="#000000" points="195.6774,-248.8467 206.2303,-247.9049 197.3934,-242.0603 195.6774,-248.8467"/>
</g>
<!-- Dictionary&#45;&gt;Decodable -->
<g id="edge58" class="edge">
<title>Dictionary&#45;&gt;Decodable</title>
<path fill="none" stroke="#000000" d="M92.9512,-183.6544C122.6776,-187.2669 164.0642,-192.2965 195.9866,-196.1759"/>
<polygon fill="#000000" stroke="#000000" points="195.6424,-199.6598 205.9917,-197.3918 196.487,-192.7109 195.6424,-199.6598"/>
</g>
<!-- Range -->
<g id="node42" class="node">
<title>Range</title>
<path fill="none" stroke="#0000ff" stroke-width="3" d="M69.6519,-685C69.6519,-685 39.6519,-685 39.6519,-685 33.6519,-685 27.6519,-679 27.6519,-673 27.6519,-673 27.6519,-661 27.6519,-661 27.6519,-655 33.6519,-649 39.6519,-649 39.6519,-649 69.6519,-649 69.6519,-649 75.6519,-649 81.6519,-655 81.6519,-661 81.6519,-661 81.6519,-673 81.6519,-673 81.6519,-679 75.6519,-685 69.6519,-685"/>
<text text-anchor="middle" x="54.6519" y="-662.8" font-family="Times,serif" font-size="14.00" fill="#000000">Range</text>
</g>
<!-- Range&#45;&gt;CustomDebugStringConvertible -->
<g id="edge46" class="edge">
<title>Range&#45;&gt;CustomDebugStringConvertible</title>
<path fill="none" stroke="#000000" d="M81.9774,-675.3109C99.9444,-680.7329 123.9882,-687.9082 145.3037,-694 152.4828,-696.0517 159.9651,-698.1582 167.4571,-700.246"/>
<polygon fill="#000000" stroke="#000000" points="166.7152,-703.6724 177.287,-702.9738 168.587,-696.9273 166.7152,-703.6724"/>
</g>
<!-- Range&#45;&gt;Equatable -->
<g id="edge47" class="edge">
<title>Range&#45;&gt;Equatable</title>
<path fill="none" stroke="#000000" d="M81.6644,-657.0504C91.073,-652.7454 101.2737,-647.0547 109.3037,-640 130.9733,-620.9625 121.9509,-602.9307 145.3037,-586 263.5878,-500.2447 317.0147,-502 463.1143,-502 463.1143,-502 463.1143,-502 727.001,-502 903.4978,-502 976.5807,-423.4417 1123.6641,-521 1203.8896,-574.2125 1233.3895,-694.9533 1242.9308,-749.8681"/>
<polygon fill="#000000" stroke="#000000" points="1239.5093,-750.6324 1244.582,-759.9338 1246.417,-749.4991 1239.5093,-750.6324"/>
</g>
<!-- Range&#45;&gt;RangeExpression -->
<g id="edge48" class="edge">
<title>Range&#45;&gt;RangeExpression</title>
<path fill="none" stroke="#000000" d="M81.768,-667C106.3932,-667 143.7456,-667 176.3949,-667"/>
<polygon fill="#000000" stroke="#000000" points="176.8079,-670.5001 186.8079,-667 176.8079,-663.5001 176.8079,-670.5001"/>
</g>
<!-- UnfoldSequence -->
<g id="node43" class="node">
<title>UnfoldSequence</title>
<path fill="none" stroke="#0000ff" stroke-width="3" d="M97.456,-59C97.456,-59 11.8477,-59 11.8477,-59 5.8477,-59 -.1523,-53 -.1523,-47 -.1523,-47 -.1523,-35 -.1523,-35 -.1523,-29 5.8477,-23 11.8477,-23 11.8477,-23 97.456,-23 97.456,-23 103.456,-23 109.456,-29 109.456,-35 109.456,-35 109.456,-47 109.456,-47 109.456,-53 103.456,-59 97.456,-59"/>
<text text-anchor="middle" x="54.6519" y="-36.8" font-family="Times,serif" font-size="14.00" fill="#000000">UnfoldSequence</text>
</g>
<!-- UnfoldSequence&#45;&gt;Sequence -->
<g id="edge59" class="edge">
<title>UnfoldSequence&#45;&gt;Sequence</title>
<path fill="none" stroke="#000000" d="M109.3087,-48.9289C167.2176,-57.3403 261.3218,-71.0395 342.5176,-83 578.9409,-117.8262 862.025,-160.116 970.0768,-176.2794"/>
<polygon fill="#000000" stroke="#000000" points="969.5717,-179.7427 979.9795,-177.7609 970.6075,-172.8197 969.5717,-179.7427"/>
</g>
<!-- UnfoldSequence&#45;&gt;IteratorProtocol -->
<g id="edge60" class="edge">
<title>UnfoldSequence&#45;&gt;IteratorProtocol</title>
<path fill="none" stroke="#000000" d="M109.3933,-34.3474C131.9315,-31.6085 158.1648,-28.4204 181.4488,-25.5908"/>
<polygon fill="#000000" stroke="#000000" points="182.0657,-29.0417 191.5704,-24.3607 181.2211,-22.0928 182.0657,-29.0417"/>
</g>
</g>
</svg>
